<?xml version="1.0" encoding="UTF-8" standalone="no"?>

<svg
   width="100"
   height="100"
   version="1.1"
   id="svg"
   viewbox="0 0 100 100"
   preserveAspectRatio="xMaxYMax"
   xmlns="http://www.w3.org/2000/svg"
   xmlns:svg="http://www.w3.org/2000/svg">
  <defs
     id="defs" />
  <g
     id="main">
    <path
       id="logo-background"
       style="fill:currentColor;stroke-width:0;stroke-linejoin:round;-inkscape-stroke:none"
       d="m 108.31817,20 -0.007,5e-4 -35.10511,0.0059 h -5e-4 c -0.0816,-0.004 -0.16326,-0.0059 -0.24494,-0.0059 -2.39175,0.0054 -4.44562,1.201262 -4.90271,3.548939 -10.48336,-0.91342 -21.38458,3.216179 -28.30207,11.214909 -4.5242,5.132691 -7.22703,11.796248 -7.63518,18.621295 -0.48834,6.907887 1.67396,13.980436 5.35836,19.857728 L 25.8986,84.971638 C 25.19847,85.68073 25.00283,86.776955 25,87.82047 c 0.002,1.290742 0.41216,2.591565 1.34693,3.407157 l 4.06375,3.982595 c -0.25737,0.609242 -0.39146,1.263442 -0.39455,1.924807 0.002,1.287783 0.43915,2.566762 1.35915,3.419871 l 12.27339,11.38115 c 0.29414,0.24266 0.96101,0.7234 1.88521,0.97487 l 0.0288,0.0147 62.53104,16.07706 0.0127,-0.003 c 0.43477,0.12221 0.88407,0.18503 1.33568,0.18675 1.04339,-0.004 2.05941,-0.33424 2.90604,-0.94406 3.62798,-3.91959 7.58805,-7.56713 11.15332,-11.52831 0.95406,-0.93695 1.49365,-2.21664 1.49847,-3.55383 -5e-4,-1.2823 -0.4932,-2.5155 -1.37626,-3.44529 v -0.0107 l -5.17062,-5.74411 0.0885,-7.229393 c -0.17836,-4.502727 -0.76296,-9.005182 -2.03237,-13.336264 -1.4455,-6.123472 -2.20846,-12.415847 -2.33352,-18.712231 -0.11511,-2.537305 0.11929,-7.628337 0.11929,-7.628337 0,0 3.48499,-10.871203 4.19184,-16.475016 v -8.274276 c -0.001,-2.712306 -2.16154,-4.930623 -4.87288,-5.002933 h -0.28944 V 24.50572 C 113.32454,21.740789 111.08311,20 108.31818,20 Z"
       class="bg-background" />
    <path
       id="logo-secondary"
       style="fill:currentColor;stroke-width:0;stroke-linejoin:round;-inkscape-stroke:none"
       d="m 64.35918,28.140433 5e-4,4.75e-4 a 27.58437,27.58413 0 0 0 -27.58434,27.58368 27.58437,27.58413 0 0 0 6.77128,17.973871 l 10.20779,-10.2043 c 2.47333,-2.472472 4.33565,-4.342292 5.97292,-5.651662 1.63724,-1.30936 3.13207,-2.117427 4.76875,-2.117427 1.63666,0 3.13197,0.808067 4.76923,2.117427 1.63728,1.30936 3.4991,3.17918 5.97242,5.651662 l 29.89294,29.88394 8.34213,8.338661 -0.002,-10.23216 c 1.7e-4,-0.09622 -0.012,-0.19178 -0.0357,-0.285035 L 109.92629,78.321483 108.78666,55.48062 h 0.19068 0.0807 l 0.008,-0.0066 c 0.5416,-0.03907 0.9962,-0.423002 1.12545,-0.950415 l 0.004,-0.0029 3.22773,-12.563724 c 0.005,-0.01817 0.01,-0.03643 0.0142,-0.05478 l 0.007,-0.02498 c 0.001,-0.0038 7.5e-4,-0.0076 0.002,-0.01126 0.0215,-0.09035 0.0327,-0.182858 0.0338,-0.275726 V 33.03259 c 0,-0.691227 -0.56035,-1.251583 -1.25158,-1.251583 l -3.89362,-0.0019 v 4.648456 c -0.001,0.09291 -0.0123,0.185385 -0.0338,0.275736 -0.001,0.0038 -0.001,0.0076 -0.002,0.01126 l -0.007,0.02488 c -0.005,0.01835 -0.009,0.03661 -0.0142,0.05478 l -3.22773,12.563716 -0.004,0.0028 c -0.12925,0.527403 -0.58385,0.91135 -1.12546,0.950425 l -0.008,0.0066 h -0.0807 -0.19068 l 1.13964,22.559744 3.50885,12.878081 c 0.0236,0.09328 0.0358,0.1888 0.0357,0.285025 l 0.004,2.421517 c 0,0.69121 -0.56034,1.251585 -1.25158,1.251575 -0.33383,-0.001 -0.65329,-0.135972 -0.88736,-0.373997 -0.005,-0.0038 -0.0104,-0.0057 -0.0151,-0.01077 C 96.44596,79.584613 86.74149,69.837376 77.00283,60.10207 l -0.0142,-0.03718 C 76.7828,59.835608 76.66877,59.538463 76.6684,59.230343 l 0.4625,-8.913605 h -0.1941 c -0.40918,-10e-4 -0.79201,-0.202062 -1.02522,-0.538272 -0.003,-0.0047 -0.007,-0.0095 -0.0108,-0.0142 -0.0727,-0.106945 -0.12854,-0.224544 -0.16525,-0.348585 L 72.47537,36.71219 c -0.0236,-0.09328 -0.0354,-0.188819 -0.0352,-0.285026 V 29.449112 A 27.58437,27.58413 0 0 0 64.3591,28.139846 Z m -27.20934,66.613924 -1.33373,1.33322 c -0.46788,0.468112 -0.4684,1.226387 -9.5e-4,1.695012 l 4.85578,4.861621 5.03765,5.04348 c 0.15031,0.15062 0.33833,0.25867 0.54415,0.31289 l 62.65864,16.48274 c 0.41258,0.10854 0.85197,-0.01 1.15381,-0.31143 l 4.94084,-4.94619 4.95257,-4.9589 c 0.46709,-0.46857 0.46658,-1.22696 -0.001,-1.69502 l -6.48381,-6.48083 -3.61348,3.61784 -4.94084,4.9462 c -0.30184,0.30142 -0.74122,0.41998 -1.15381,0.31144 L 41.10658,98.484167 c -0.2058,-0.05421 -0.39336,-0.162273 -0.54366,-0.3129 z"
       class="bg-secondary" />
    <path
       id="logo-cutout"
       style="fill:currentColor;stroke-width:0;stroke-linejoin:round;-inkscape-stroke:none"
       d="m 64.36017,28.139648 -10e-4,5e-4 5e-4,4.75e-4 a 27.58437,27.58413 0 0 0 -27.58428,27.584152 27.58437,27.58413 0 0 0 6.77128,17.973391 l 1.87054,-1.869555 A 25.031778,25.03162 0 0 1 39.32843,55.724293 25.031778,25.03162 0 0 1 64.3602,30.692671 25.031778,25.03162 0 0 1 72.44029,32.104123 V 29.448922 A 27.58437,27.58413 0 0 0 64.3602,28.139648 Z m 43.97429,3.639845 v 2.201516 l 1.40706,-0.0057 c 0.63114,0 1.14257,0.511897 1.14257,1.143038 v 5.259568 c -7.5e-4,0.08477 -0.0113,0.169292 -0.0308,0.251791 -0.001,0.0047 -0.001,0.0066 -0.002,0.01031 l -0.005,0.02299 c -0.006,0.01684 -0.009,0.03321 -0.0131,0.04986 l -3.30106,11.47151 -0.004,0.0029 c -0.0961,0.392048 -0.39274,0.686998 -0.76512,0.806205 l -0.44588,1.73608 0.97046,23.221708 3.69073,13.439827 c 0.0217,0.08515 0.0329,0.172207 0.0327,0.260097 l 0.002,7.605797 2.46016,2.45917 -0.002,-10.231684 c 1.6e-4,-0.09622 -0.012,-0.191773 -0.0357,-0.285028 L 109.92709,78.321343 108.78746,55.48048 h 0.19067 0.0812 l 0.008,-0.0066 c 0.5416,-0.03907 0.99619,-0.423005 1.12545,-0.950417 l 0.004,-0.0028 3.22774,-12.563727 c 0.005,-0.01816 0.01,-0.03642 0.0142,-0.05478 l 0.007,-0.02498 c 0.001,-0.0038 2.5e-4,-0.0076 0.002,-0.01126 0.0215,-0.09035 0.0327,-0.182869 0.0338,-0.275736 v -8.557708 c 0,-0.691227 -0.56036,-1.251583 -1.2516,-1.251583 z m -71.18363,62.974079 -1.33471,1.334205 c -0.46787,0.46811 -0.46843,1.226387 -9.5e-4,1.69501 l 4.85577,4.861613 5.03765,5.04349 c 0.15031,0.15061 0.33833,0.25867 0.54415,0.31289 l 62.65864,16.48274 c 0.41259,0.10854 0.85198,-0.01 1.15382,-0.31144 l 4.94084,-4.94618 4.95257,-4.9589 c 0.46709,-0.46858 0.46654,-1.22695 -10e-4,-1.69502 l -6.48381,-6.48084 v -10e-4 l -1.36111,1.36255 4.68907,4.79464 c 0.42688,0.42737 0.42748,1.12002 0.001,1.54786 -3.01092,3.01475 -5.02072,4.40231 -8.03217,7.41658 -0.27561,0.27602 -0.67684,0.38367 -1.05358,0.28454 L 48.61953,106.18113 c -0.18793,-0.0495 -0.35951,-0.14847 -0.49672,-0.28601 l -9.03345,-7.917231 c -0.37985,-0.38078 -0.40169,-0.961882 -0.10511,-1.388472 z"
       class="bg-cutout" />
    <path
       id="logo-primary"
       style="fill:currentColor;stroke-width:0;stroke-linecap:round;stroke-linejoin:round;stroke-opacity:1;paint-order:stroke fill markers"
       d="m 101.26918,24.396206 -0.002,4.89e-4 c -0.67812,0.131855 -1.25106,0.560261 -1.25106,1.2511 v 4.9e-4 h -5e-4 v 4.585898 h -5.00634 v -4.577099 c 1.7e-4,-0.0019 2.5e-4,-0.0049 5e-4,-0.0068 0,-0.691226 -0.56035,-1.251588 -1.25158,-1.251588 h -5e-4 -6.7444 -0.10169 l -0.008,0.0078 c -0.60303,0.0544 -1.08065,0.532639 -1.13426,1.135719 l -0.007,0.0073 v 0.100222 4.581989 H 80.75606 V 25.64975 a 1.2515888,1.2515779 0 0 0 -1.25159,-1.251589 h -5.81255 c -0.69124,0 -1.25159,0.560363 -1.25159,1.251589 v 10.777842 c -1.7e-4,0.09621 0.0115,0.191756 0.0352,0.28503 l 3.26,12.703627 c 0.0367,0.124041 0.0925,0.241641 0.16525,0.348586 0.004,0.0047 0.008,0.0095 0.0108,0.01418 0.23321,0.336228 0.61604,0.53723 1.02522,0.53828 h 0.1941 l -0.4625,8.91366 c 5e-4,0.30812 0.1144,0.605272 0.32023,0.834555 l 0.0142,0.03715 c 9.73868,9.735317 19.44313,19.482224 29.17278,29.226555 0.005,0.0047 0.0105,0.0066 0.0151,0.01075 0.23407,0.238025 0.55353,0.372675 0.88735,0.37401 0.69124,10e-6 1.25159,-0.560362 1.25159,-1.25159 l -0.004,-2.421529 c 1.6e-4,-0.09623 -0.012,-0.191765 -0.0357,-0.28503 l -3.50889,-12.877677 -1.13963,-22.559888 h 0.19067 0.0807 l 0.008,-0.0063 c 0.54161,-0.03907 0.9962,-0.42302 1.12545,-0.950424 l 0.004,-0.0029 3.22773,-12.563801 c 0.005,-0.01817 0.01,-0.03641 0.0142,-0.05476 l 0.006,-0.02494 c 0.001,-0.0038 7.5e-4,-0.0076 0.002,-0.01125 0.0215,-0.09035 0.0327,-0.182864 0.0337,-0.275741 V 25.650239 c 0,-0.691226 -0.56035,-1.251589 -1.25159,-1.251589 z M 64.49594,55.72455 c -1.63668,0 -3.13149,0.808565 -4.76875,2.117922 -1.63726,1.30937 -3.49908,3.179215 -5.97242,5.651707 l -16.98152,16.975652 -6.10297,6.101007 c -0.46788,0.46811 -0.46836,1.226409 -9.7e-4,1.695022 l 4.85577,4.861152 5.03765,5.044 c 0.15029,0.150625 0.33834,0.258677 0.54415,0.312897 l 62.65864,16.482351 c 0.41259,0.10853 0.85197,-0.01 1.15381,-0.31143 l 4.94084,-4.94622 4.95258,-4.95893 c 0.46709,-0.46856 0.4666,-1.22647 -10e-4,-1.69454 L 105.13053,93.377817 75.23809,63.494179 C 72.76475,61.02168 70.90246,59.151832 69.26518,57.842472 67.62792,56.533115 66.13262,55.72455 64.49594,55.72455 Z"
       class="bg-primary" />
  </g>
</svg>
