<?xml version="1.0" encoding="UTF-8" standalone="no"?>

<svg
   width="400"
   height="500"
   version="1.1"
   id="svg"
   xmlns="http://www.w3.org/2000/svg"
   xmlns:svg="http://www.w3.org/2000/svg">
  <defs
     id="defs">
    <pattern
       patternUnits="userSpaceOnUse"
       width="400"
       height="500"
       preserveAspectRatio="xMidYMid"
       id="tiles"
       patternTransform="translate(0,-4.647)">
      <path
         id="background1"
         style="fill:currentColor;stroke-width:0;stroke-linejoin:round;-inkscape-stroke:none"
         d="m 149.91381,0 -0.0102,7.5e-4 -52.590821,0.00879 h -7.5e-4 C 97.189809,0.00361 97.067463,6.8e-4 96.945096,7.5e-4 93.362018,0.00889 90.285135,1.8003555 89.600368,5.3174003 73.895283,3.949026 57.564222,10.135562 47.201148,22.118426 40.423468,29.807689 36.374362,39.790339 35.762916,50.014912 35.031338,60.363585 38.270678,70.958944 43.79026,79.763692 L 26.44138,97.333759 c -1.048871,1.062288 -1.341952,2.704541 -1.34619,4.267821 0.0037,1.93366 0.61746,3.88241 2.017823,5.10425 l 6.087888,5.96631 c -0.385552,0.9127 -0.586443,1.89276 -0.591063,2.88354 0.0038,1.92923 0.657892,3.84526 2.036135,5.1233 l 18.386719,17.05005 c 0.440643,0.36352 1.439682,1.08373 2.824218,1.46044 l 0.04322,0.022 93.67748,24.08497 0.0191,-0.004 c 0.65132,0.18309 1.32442,0.2772 2.00098,0.27978 1.56309,-0.006 3.08518,-0.50073 4.35351,-1.4143 5.43506,-5.87192 11.36765,-11.33628 16.70876,-17.27052 1.42927,-1.40363 2.23762,-3.32073 2.24485,-5.32397 -7.5e-4,-1.92101 -0.73887,-3.76846 -2.06176,-5.16138 v -0.0161 l -7.74609,-8.60522 0.13257,-10.83033 c -0.2672,-6.74552 -1.14299,-13.49063 -3.04467,-19.979 -2.16551,-9.17355 -3.3085,-18.600127 -3.49586,-28.032716 -0.17244,-3.801124 0.17872,-11.427979 0.17872,-11.427979 0,0 5.22085,-16.286104 6.27978,-24.681154 V 18.433594 c -0.001,-4.063295 -3.2382,-7.386546 -7.30005,-7.494873 h -0.43366 V 6.75 c 0,-4.1421311 -3.35786,-6.7499996 -7.5,-6.75 z"
         class="logo-background" />
      <path
         id="secondary1"
         style="fill:currentColor;stroke-width:0;stroke-linejoin:round;-inkscape-stroke:none"
         d="m 84.059028,12.195149 7.5e-4,7.12e-4 A 41.324029,41.323669 0 0 0 42.735803,53.518845 41.324029,41.323669 0 0 0 52.879837,80.445427 L 68.172085,65.15841 c 3.705279,-3.704006 6.495222,-6.505174 8.947998,-8.466735 2.452749,-1.961546 4.692147,-3.17211 7.144045,-3.17211 2.451883,0 4.69199,1.210564 7.144767,3.17211 2.452804,1.961546 5.241982,4.762718 8.947265,8.466735 l 44.78248,44.769 12.49732,12.49212 -0.003,-15.32876 c 2.4e-4,-0.14414 -0.018,-0.28731 -0.0534,-0.42701 l -5.25658,-19.2926 -1.70728,-34.217801 h 0.28565 0.1209 l 0.0113,-0.0099 c 0.81138,-0.05853 1.4924,-0.633697 1.68604,-1.423815 l 0.006,-0.0042 4.83545,-18.821667 c 0.007,-0.02722 0.0147,-0.05457 0.0213,-0.08207 l 0.01,-0.03742 c 0.001,-0.0057 0.001,-0.01132 0.003,-0.01687 0.0322,-0.135356 0.049,-0.273941 0.0506,-0.413066 V 19.524068 c 0,-1.035524 -0.83945,-1.87499 -1.87499,-1.87499 l -5.833,-0.0028 v 6.963831 c -0.001,0.139181 -0.0184,0.277725 -0.0506,0.413079 -0.001,0.0057 -0.001,0.01134 -0.003,0.01687 l -0.01,0.03728 c -0.007,0.02749 -0.0142,0.05485 -0.0213,0.08206 l -4.83546,18.82165 -0.006,0.0042 c -0.19363,0.790099 -0.87467,1.365293 -1.68605,1.423827 l -0.0113,0.0099 h -0.1209 -0.28565 l 1.70728,33.796657 5.2566,19.292599 c 0.0354,0.139752 0.0537,0.282844 0.0534,0.426998 l 0.006,3.627671 c 0,1.03549 -0.83945,1.87499 -1.87499,1.87497 -0.5001,-0.002 -0.97869,-0.2037 -1.32935,-0.56028 -0.007,-0.006 -0.0156,-0.008 -0.0227,-0.0162 -14.57577,-14.59791 -29.114,-29.200204 -43.70345,-43.784625 l -0.0213,-0.0557 c -0.30869,-0.343474 -0.4795,-0.788625 -0.48007,-1.25022 l 0.69287,-13.353435 h -0.29078 c -0.61299,-0.0015 -1.18651,-0.302711 -1.53588,-0.806385 -0.004,-0.0071 -0.01,-0.01417 -0.0162,-0.02126 -0.10899,-0.160215 -0.19257,-0.336387 -0.24756,-0.522214 L 96.217858,25.036462 c -0.03543,-0.139748 -0.05301,-0.282869 -0.05273,-0.426997 V 14.155675 A 41.324029,41.323669 0 0 0 84.058929,12.19427 Z m -40.762205,99.794041 -1.998043,1.99729 c -0.700937,0.70128 -0.701716,1.83725 -0.0014,2.53929 l 7.274424,7.28317 7.546876,7.55562 c 0.225184,0.22564 0.506849,0.38751 0.815187,0.46874 l 93.868633,24.69272 c 0.6181,0.16261 1.27634,-0.015 1.72853,-0.46655 l 7.40185,-7.40986 7.41943,-7.42892 c 0.69975,-0.70195 0.699,-1.83809 -0.002,-2.5393 l -9.71338,-9.7089 -5.41334,5.41987 -7.40185,7.40989 c -0.45218,0.45155 -1.11042,0.62917 -1.72851,0.46655 l -93.869298,-24.692 c -0.30831,-0.0812 -0.589294,-0.2431 -0.81445,-0.46875 z"
         class="logo-secondary" />
      <path
         id="logo-cutout1"
         style="fill:currentColor;stroke-width:0;stroke-linejoin:round;-inkscape-stroke:none"
         d="m 84.060517,12.193972 -0.0014,7.5e-4 7.5e-4,7.13e-4 A 41.324029,41.323669 0 0 0 42.735862,53.519137 41.324029,41.323669 0 0 0 52.879897,80.445 l 2.802245,-2.800774 A 37.5,37.499764 0 0 1 46.560564,53.518414 37.5,37.499764 0 0 1 84.06056,16.018646 37.5,37.499764 0 0 1 96.165305,18.133136 V 14.155391 A 41.324029,41.323669 0 0 0 84.06056,12.193972 Z m 65.877693,5.452838 v 3.298082 l 2.10791,-0.0085 c 0.94551,0 1.71168,0.766871 1.71168,1.712381 v 7.879337 c -0.001,0.126994 -0.017,0.253616 -0.0462,0.377209 -0.001,0.0071 -0.001,0.0099 -0.003,0.01545 l -0.007,0.03446 c -0.009,0.02524 -0.0128,0.04975 -0.0197,0.07469 l -4.94531,17.185421 -0.006,0.0042 c -0.14393,0.587325 -0.58836,1.029187 -1.14623,1.20777 l -0.66797,2.600816 1.45385,34.788345 5.52906,20.134149 c 0.0326,0.12756 0.0493,0.25798 0.049,0.38965 l 0.003,11.39421 3.68555,3.68406 -0.003,-15.32803 c 2.4e-4,-0.14414 -0.018,-0.2873 -0.0534,-0.427 l -5.2566,-19.292594 -1.70728,-34.217805 h 0.28565 0.12161 l 0.0113,-0.0099 c 0.81138,-0.05854 1.4924,-0.633701 1.68603,-1.423815 l 0.006,-0.0042 4.83545,-18.821666 c 0.007,-0.02723 0.0147,-0.05457 0.0213,-0.08206 l 0.01,-0.03742 c 0.001,-0.0057 3.7e-4,-0.01133 0.003,-0.01688 0.0322,-0.135352 0.049,-0.273952 0.0506,-0.413077 V 19.523815 c 0,-1.035524 -0.83947,-1.874991 -1.87501,-1.874991 z m -106.639898,94.3412 -1.999516,1.99877 c -0.700923,0.70128 -0.701759,1.83725 -0.0014,2.53929 l 7.274409,7.28317 7.546876,7.55562 c 0.225184,0.22564 0.506849,0.38751 0.815187,0.46873 l 93.868652,24.69273 c 0.61809,0.16261 1.27634,-0.015 1.72852,-0.46655 l 7.40186,-7.40986 7.41943,-7.42892 c 0.69974,-0.70197 0.69892,-1.83808 -0.001,-2.53929 l -9.71328,-9.70893 v -0.002 l -2.03907,2.04125 7.02466,7.18282 c 0.63951,0.64024 0.64043,1.67789 0.001,2.31884 -4.51065,4.51638 -7.52153,6.59508 -12.03297,11.11076 -0.41288,0.4135 -1.01395,0.57476 -1.57836,0.42626 L 60.479525,129.10759 c -0.281537,-0.0741 -0.538583,-0.22242 -0.744137,-0.42847 L 46.202421,116.81835 c -0.569055,-0.57045 -0.601781,-1.44099 -0.157464,-2.08006 z"
         class="logo-cutout" />
      <path
         id="logo-primary1"
         style="fill:currentColor;stroke-width:0;stroke-linecap:round;stroke-linejoin:round;stroke-opacity:1;paint-order:stroke fill markers"
         d="m 139.35375,6.5859375 -0.003,7.5e-4 c -1.01589,0.197532 -1.87422,0.8393254 -1.87422,1.8742676 v 7.5e-4 h -7.5e-4 v 6.8701179 h -7.5 V 8.4748534 c 2.6e-4,-0.00285 3.8e-4,-0.00741 7.5e-4,-0.010249 0,-1.0355231 -0.83946,-1.875 -1.875,-1.875 h -7.5e-4 -10.10376 -0.15234 l -0.0118,0.011719 c -0.90338,0.081496 -1.61891,0.7979445 -1.69921,1.7014162 l -0.0111,0.010984 v 0.1501434 6.864258 h -7.49978 V 8.463867 a 1.8749999,1.8749836 0 0 0 -1.875,-1.8749996 h -8.707759 c -1.035539,0 -1.875001,0.8394765 -1.875001,1.8749996 v 16.14624 c -2.55e-4,0.144128 0.01731,0.287269 0.05274,0.427003 l 4.88379,19.031251 c 0.055,0.185824 0.13861,0.362003 0.24756,0.522214 0.006,0.0071 0.0113,0.01417 0.0161,0.02126 0.34937,0.503703 0.9229,0.804825 1.53589,0.806396 h 0.29077 l -0.69287,13.353517 c 5.6e-4,0.461591 0.17138,0.906754 0.47974,1.250243 L 103,60.077651 c 14.58947,14.584436 29.12766,29.186235 43.70361,43.784179 0.007,0.007 0.0157,0.01 0.0227,0.0161 0.35066,0.35658 0.82925,0.5583 1.32935,0.5603 1.03554,1e-5 1.875,-0.83948 1.875,-1.875 l -0.006,-3.627684 c 2.4e-4,-0.144157 -0.018,-0.287284 -0.0535,-0.427005 L 144.61475,79.216575 142.90747,45.4197 h 0.28565 0.12085 l 0.0118,-0.0095 c 0.81137,-0.05854 1.4924,-0.633727 1.68603,-1.42383 l 0.006,-0.0044 4.83546,-18.82178 c 0.007,-0.02721 0.0147,-0.05454 0.0212,-0.08203 l 0.009,-0.03736 c 10e-4,-0.0057 10e-4,-0.01134 0.003,-0.01685 0.0322,-0.135354 0.049,-0.273947 0.0505,-0.413086 V 8.4645997 c 0,-1.0355235 -0.83946,-1.875 -1.875,-1.875 z M 84.263906,53.5188 c -2.451895,0 -4.691267,1.211306 -7.144043,3.172853 -2.452773,1.961557 -5.241961,4.762766 -8.947265,8.466794 l -25.439942,25.431154 -9.142823,9.13989 c -0.700935,0.701279 -0.701648,1.837279 -0.0015,2.539309 l 7.274415,7.28247 7.546874,7.5564 c 0.225155,0.22565 0.506876,0.38752 0.815185,0.46875 l 93.868653,24.69214 c 0.6181,0.16259 1.27634,-0.015 1.72852,-0.46656 l 7.40185,-7.40991 7.41944,-7.42895 c 0.69974,-0.70194 0.69902,-1.83737 -0.001,-2.53858 L 145.13842,109.927 100.35668,65.158448 C 96.651377,61.454404 93.861485,58.653195 91.408682,56.691653 88.955908,54.730106 86.715817,53.5188 84.263906,53.5188 Z"
         class="logo-primary" />
      <rect
         style="fill-opacity:0;stroke-width:0;stroke-linecap:round;stroke-linejoin:round;paint-order:stroke fill markers"
         id="tile1"
         width="200"
         height="250"
         x="0"
         y="4.6469998" />
      <path
         id="background2"
         style="fill:currentColor;stroke-width:0;stroke-linejoin:round;-inkscape-stroke:none"
         d="m 349.91382,250 -0.0102,7.5e-4 -52.59082,0.009 h -7.5e-4 c -0.12223,-0.006 -0.24458,-0.009 -0.36694,-0.009 -3.58308,0.008 -6.65997,1.79961 -7.34473,5.31665 -15.70509,-1.36837 -32.03615,4.81816 -42.39922,16.80103 -6.77768,7.68926 -10.82679,17.67191 -11.43823,27.89648 -0.73158,10.34867 2.50776,20.94403 8.02734,29.74878 l -17.34888,17.57007 c -1.04887,1.06229 -1.34195,2.70454 -1.34619,4.26782 0.004,1.93366 0.61746,3.88241 2.01782,5.10425 l 6.08789,5.96631 c -0.38555,0.9127 -0.58644,1.89276 -0.59106,2.88354 0.004,1.92923 0.65789,3.84526 2.03613,5.1233 l 18.38672,17.05005 c 0.44064,0.36352 1.43968,1.08373 2.82422,1.46044 l 0.0432,0.022 93.67748,24.08497 0.0191,-0.004 c 0.65132,0.18309 1.32442,0.2772 2.00098,0.27978 1.56309,-0.006 3.08518,-0.50073 4.35351,-1.4143 5.43506,-5.87192 11.36765,-11.33628 16.70876,-17.27052 1.42927,-1.40363 2.23762,-3.32073 2.24485,-5.32397 -7.5e-4,-1.92101 -0.73887,-3.76846 -2.06176,-5.16138 v -0.0161 l -7.74609,-8.60522 0.13257,-10.83033 c -0.2672,-6.74552 -1.14299,-13.49063 -3.04467,-19.979 -2.16551,-9.17355 -3.3085,-18.60013 -3.49586,-28.03272 -0.17244,-3.80112 0.17872,-11.42798 0.17872,-11.42798 0,0 5.22085,-16.2861 6.27978,-24.68115 v -12.39596 c -0.001,-4.06329 -3.2382,-7.38654 -7.30005,-7.49487 H 357.4138 V 256.75 c 0,-4.14213 -3.35786,-6.75 -7.5,-6.75 z"
         class="logo-background" />
      <path
         id="secondary2"
         style="fill:currentColor;stroke-width:0;stroke-linejoin:round;-inkscape-stroke:none"
         d="m 284.05904,262.19515 7.5e-4,7.1e-4 a 41.324029,41.323669 0 0 0 -41.32398,41.32298 41.324029,41.323669 0 0 0 10.14404,26.92659 l 15.29224,-15.28702 c 3.70528,-3.70401 6.49523,-6.50517 8.948,-8.46674 2.45275,-1.96154 4.69215,-3.17211 7.14405,-3.17211 2.45188,0 4.69199,1.21057 7.14476,3.17211 2.45281,1.96155 5.24199,4.76272 8.94727,8.46674 l 44.78248,44.769 12.49732,12.49212 -0.003,-15.32876 c 2.4e-4,-0.14414 -0.018,-0.28731 -0.0534,-0.42701 l -5.25658,-19.2926 -1.70728,-34.2178 h 0.28565 0.1209 l 0.0113,-0.01 c 0.81138,-0.0585 1.4924,-0.6337 1.68604,-1.42382 l 0.006,-0.004 4.83545,-18.82166 c 0.007,-0.0272 0.0147,-0.0546 0.0213,-0.0821 l 0.01,-0.0374 c 10e-4,-0.006 10e-4,-0.0113 0.003,-0.0169 0.0322,-0.13536 0.049,-0.27394 0.0506,-0.41307 v -12.82028 c 0,-1.03553 -0.83945,-1.87499 -1.87499,-1.87499 l -5.833,-0.003 v 6.96383 c -10e-4,0.13918 -0.0184,0.27772 -0.0506,0.41308 -10e-4,0.006 -10e-4,0.0113 -0.003,0.0169 l -0.01,0.0373 c -0.007,0.0275 -0.0142,0.0549 -0.0213,0.0821 l -4.83546,18.82165 -0.006,0.004 c -0.19363,0.7901 -0.87467,1.36529 -1.68605,1.42382 l -0.0113,0.01 h -0.1209 -0.28565 l 1.70728,33.79666 5.2566,19.2926 c 0.0354,0.13975 0.0537,0.28284 0.0534,0.427 l 0.006,3.62767 c 0,1.03549 -0.83945,1.87498 -1.87499,1.87497 -0.5001,-0.001 -0.97869,-0.2037 -1.32935,-0.56028 -0.007,-0.006 -0.0156,-0.008 -0.0227,-0.0162 -14.57577,-14.59791 -29.114,-29.2002 -43.70345,-43.78463 l -0.0213,-0.0557 c -0.30869,-0.34347 -0.4795,-0.78862 -0.48007,-1.25022 l 0.69287,-13.35343 h -0.29078 c -0.61299,-10e-4 -1.18651,-0.30271 -1.53588,-0.80639 -0.004,-0.007 -0.01,-0.0142 -0.0162,-0.0213 -0.10899,-0.16021 -0.19257,-0.33638 -0.24756,-0.52221 l -4.88378,-19.03113 c -0.0354,-0.13975 -0.053,-0.28287 -0.0527,-0.427 v -10.45379 a 41.324029,41.323669 0 0 0 -12.1062,-1.9614 z m -40.76221,99.79404 -1.99804,1.99729 c -0.70094,0.70128 -0.70172,1.83725 -0.001,2.53929 l 7.27442,7.28317 7.54688,7.55562 c 0.22518,0.22564 0.50685,0.38751 0.81519,0.46874 l 93.86863,24.69272 c 0.6181,0.16261 1.27634,-0.015 1.72853,-0.46655 l 7.40185,-7.40986 7.41943,-7.42892 c 0.69975,-0.70195 0.699,-1.83809 -0.002,-2.5393 l -9.71338,-9.7089 -5.41334,5.41987 -7.40185,7.40989 c -0.45218,0.45155 -1.11042,0.62917 -1.72851,0.46655 l -93.8693,-24.692 c -0.30831,-0.0812 -0.58929,-0.2431 -0.81445,-0.46875 z"
         class="logo-secondary" />
      <path
         id="logo-cutout2"
         style="fill:currentColor;stroke-width:0;stroke-linejoin:round;-inkscape-stroke:none"
         d="m 284.06053,262.19397 -0.001,7.5e-4 7.5e-4,7.1e-4 a 41.324029,41.323669 0 0 0 -41.32401,41.32371 41.324029,41.323669 0 0 0 10.14404,26.92586 l 2.80224,-2.80077 a 37.5,37.499764 0 0 1 -9.12158,-24.12582 37.5,37.499764 0 0 1 37.5,-37.49976 37.5,37.499764 0 0 1 12.10475,2.11449 v -3.97775 a 41.324029,41.323669 0 0 0 -12.10475,-1.96142 z m 65.87769,5.45284 v 3.29808 l 2.10791,-0.008 c 0.94551,0 1.71168,0.76687 1.71168,1.71238 v 7.87934 c -0.001,0.12699 -0.017,0.25362 -0.0462,0.37721 -0.001,0.007 -0.001,0.01 -0.003,0.0155 l -0.007,0.0345 c -0.009,0.0252 -0.0128,0.0497 -0.0197,0.0747 l -4.94531,17.18542 -0.006,0.004 c -0.14393,0.58732 -0.58836,1.02919 -1.14623,1.20777 l -0.66797,2.60082 1.45385,34.78834 5.52906,20.13415 c 0.0326,0.12756 0.0493,0.25798 0.049,0.38965 l 0.003,11.39421 3.68555,3.68406 -0.003,-15.32803 c 2.4e-4,-0.14414 -0.018,-0.2873 -0.0534,-0.427 l -5.2566,-19.29259 -1.70728,-34.21781 h 0.28565 0.12161 l 0.0113,-0.01 c 0.81138,-0.0585 1.4924,-0.6337 1.68603,-1.42381 l 0.006,-0.004 4.83545,-18.82167 c 0.007,-0.0272 0.0147,-0.0546 0.0213,-0.0821 l 0.01,-0.0374 c 10e-4,-0.006 3.7e-4,-0.0113 0.003,-0.0169 0.0322,-0.13535 0.049,-0.27395 0.0506,-0.41308 v -12.82028 c 0,-1.03552 -0.83947,-1.87499 -1.87501,-1.87499 z m -106.6399,94.3412 -1.99951,1.99877 c -0.70093,0.70128 -0.70176,1.83725 -0.001,2.53929 l 7.2744,7.28317 7.54688,7.55562 c 0.22518,0.22564 0.50685,0.38751 0.81519,0.46873 l 93.86865,24.69273 c 0.61809,0.16261 1.27634,-0.015 1.72852,-0.46655 l 7.40186,-7.40986 7.41943,-7.42892 c 0.69974,-0.70197 0.69892,-1.83808 -10e-4,-2.53929 l -9.71328,-9.70893 v -0.002 l -2.03907,2.04125 7.02466,7.18282 c 0.63951,0.64024 0.64043,1.67789 10e-4,2.31884 -4.51065,4.51638 -7.52153,6.59508 -12.03297,11.11076 -0.41288,0.4135 -1.01395,0.57476 -1.57836,0.42626 l -88.53379,-22.94311 c -0.28153,-0.0741 -0.53858,-0.22242 -0.74413,-0.42847 l -13.53297,-11.86077 c -0.56905,-0.57045 -0.60178,-1.44099 -0.15746,-2.08006 z"
         class="logo-cutout" />
      <path
         id="logo-primary2"
         style="fill:currentColor;stroke-width:0;stroke-linecap:round;stroke-linejoin:round;stroke-opacity:1;paint-order:stroke fill markers"
         d="m 339.35376,256.58594 -0.003,7.5e-4 c -1.01589,0.19753 -1.87422,0.83932 -1.87422,1.87427 v 7.5e-4 h -7.5e-4 v 6.87011 h -7.5 v -6.85697 c 2.6e-4,-0.003 3.8e-4,-0.007 7.5e-4,-0.0103 0,-1.03552 -0.83946,-1.875 -1.875,-1.875 h -7.5e-4 -10.10376 -0.15234 l -0.0118,0.0117 c -0.90338,0.0815 -1.61891,0.79795 -1.69921,1.70142 l -0.0111,0.011 v 0.15015 6.86425 h -7.49978 v -6.86425 a 1.8749999,1.8749836 0 0 0 -1.875,-1.875 h -8.70776 c -1.03554,0 -1.875,0.83947 -1.875,1.875 v 16.14624 c -2.6e-4,0.14412 0.0173,0.28727 0.0527,0.427 l 4.88379,19.03125 c 0.055,0.18582 0.13861,0.362 0.24756,0.52221 0.006,0.007 0.0113,0.0142 0.0161,0.0213 0.34937,0.50371 0.92289,0.80483 1.53589,0.8064 h 0.29077 l -0.69287,13.35352 c 5.6e-4,0.46159 0.17138,0.90675 0.47973,1.25024 l 0.0212,0.0557 c 14.58948,14.58444 29.12767,29.18624 43.70362,43.78418 0.007,0.007 0.0157,0.01 0.0227,0.0161 0.35066,0.35658 0.82925,0.5583 1.32935,0.5603 1.03554,10e-6 1.875,-0.83948 1.875,-1.875 l -0.006,-3.62768 c 2.4e-4,-0.14416 -0.018,-0.28729 -0.0535,-0.42701 l -5.25641,-19.29199 -1.70728,-33.79687 h 0.28565 0.12085 l 0.0118,-0.01 c 0.81137,-0.0585 1.4924,-0.63373 1.68603,-1.42383 l 0.006,-0.004 4.83546,-18.82178 c 0.007,-0.0272 0.0147,-0.0545 0.0212,-0.082 l 0.009,-0.0374 c 0.001,-0.006 0.001,-0.0113 0.003,-0.0168 0.0322,-0.13535 0.049,-0.27395 0.0505,-0.41309 V 258.4646 c 0,-1.03552 -0.83946,-1.875 -1.875,-1.875 z m -55.08984,46.93286 c -2.4519,0 -4.69127,1.21131 -7.14405,3.17285 -2.45277,1.96156 -5.24196,4.76277 -8.94726,8.4668 l -25.43994,25.43115 -9.14283,9.13989 c -0.70093,0.70128 -0.70165,1.83728 -0.001,2.53931 l 7.27442,7.28247 7.54687,7.5564 c 0.22516,0.22565 0.50688,0.38752 0.81519,0.46875 l 93.86865,24.69214 c 0.6181,0.16259 1.27634,-0.015 1.72852,-0.46656 l 7.40185,-7.40991 7.41944,-7.42895 c 0.69974,-0.70194 0.69902,-1.83737 -10e-4,-2.53858 L 345.13843,359.927 300.35669,315.15845 c -3.7053,-3.70405 -6.4952,-6.50526 -8.948,-8.4668 -2.45277,-1.96154 -4.69286,-3.17285 -7.14477,-3.17285 z"
         class="logo-primary" />
      <rect
         style="fill-opacity:0;stroke-width:0;stroke-linecap:round;stroke-linejoin:round;paint-order:stroke fill markers"
         id="tile2"
         width="200"
         height="250"
         x="200"
         y="254.647" />
    </pattern>
  </defs>
  <g
     id="main">
    <rect
       style="fill:url(#tiles);stroke:none"
       width="100%"
       height="100%"
       x="0"
       y="0"
       id="tiled" />
  </g>
</svg>
