<?xml version="1.0" encoding="UTF-8" standalone="no"?>

<svg
   width="200"
   height="200"
   version="1.1"
   id="svg"
   viewbox="0 0 200 200"
   preserveAspectRatio="midXMidY meet"
   xmlns="http://www.w3.org/2000/svg"
   xmlns:svg="http://www.w3.org/2000/svg">
  <defs
     id="defs" />
  <g
     id="main">
    <path
       id="logo-background"
       style="fill:currentColor;stroke-width:0;stroke-linejoin:round;-inkscape-stroke:none"
       d="m 166.63634,-9.186563 -0.0136,10e-4 -70.210225,0.01173 h -0.001 c -0.16318,-0.00791 -0.326515,-0.011825 -0.489875,-0.01173 -4.78351,0.01086 -8.891235,2.402524 -9.80542,7.0978782 C 65.14949,-3.9145253 43.347061,4.3446748 29.512066,20.342136 20.463671,30.607518 15.058002,43.934633 14.241704,57.584728 c -0.976678,13.815775 3.347932,27.960875 10.71673,39.71546 L 1.797194,120.75672 C 0.39692178,122.17491 0.00564663,124.36736 -9.5589816e-6,126.45439 0.00479465,129.03587 0.82431476,131.63752 2.6938401,133.2687 l 8.1275059,7.96519 c -0.514726,1.21849 -0.78292,2.52689 -0.789088,3.84962 0.005,2.57556 0.878301,5.13352 2.718295,6.83973 l 24.546788,22.7623 c 0.588271,0.48532 1.922017,1.44681 3.770411,1.94974 l 0.05769,0.0293 125.062088,32.15412 0.0254,-0.006 c 0.86953,0.24443 1.76814,0.37007 2.67136,0.37351 2.08678,-0.008 4.11881,-0.66848 5.81207,-1.88813 7.25596,-7.83917 15.17612,-15.13425 22.30665,-23.05662 1.90812,-1.8739 2.9873,-4.43327 2.99695,-7.10766 -10e-4,-2.56461 -0.98641,-5.03099 -2.75252,-6.89058 v -0.0215 l -10.34124,-11.48822 0.17699,-14.45879 c -0.35672,-9.00545 -1.52592,-18.01036 -4.06473,-26.67253 -2.89102,-12.24694 -4.41693,-24.831692 -4.66706,-37.424462 -0.23022,-5.07461 0.23859,-15.256675 0.23859,-15.256675 0,0 6.96998,-21.742408 8.38369,-32.950034 V 15.422805 c -0.002,-5.424613 -4.32309,-9.8612465 -9.74578,-10.005867 h -0.57888 v -5.59206047 c 0,-5.52986203 -4.48284,-9.01144003 -10.01271,-9.01144053 z"
       class="logo-background" />
    <path
       id="logo-secondary"
       style="fill:currentColor;stroke-width:0;stroke-linejoin:round;-inkscape-stroke:none"
       d="m 78.718355,7.0943045 10e-4,9.5e-4 A 55.168745,55.168265 0 0 0 23.550668,62.262618 55.168745,55.168265 0 0 0 37.093241,98.210363 l 20.415579,-20.4086 c 4.946655,-4.944945 8.671305,-8.684585 11.94583,-11.303325 3.27449,-2.61872 6.26415,-4.234855 9.537505,-4.234855 3.27333,0 6.263935,1.616135 9.538465,4.234855 3.27456,2.61872 6.998195,6.35836 11.94484,11.303325 l 59.78588,59.767887 16.68427,16.67732 -0.004,-20.46432 c 3.2e-4,-0.19244 -0.024,-0.38356 -0.0713,-0.57007 l -7.01768,-25.75617 -2.27927,-45.681727 h 0.38135 0.1614 l 0.0152,-0.01325 c 1.08321,-0.07814 1.99239,-0.846005 2.2509,-1.90083 l 0.008,-0.0057 6.45547,-25.127451 c 0.009,-0.03633 0.0197,-0.07285 0.0284,-0.109556 l 0.0132,-0.04996 c 0.002,-0.0076 0.002,-0.01514 0.004,-0.02251 0.0429,-0.180702 0.0655,-0.365718 0.0675,-0.551453 V 16.878619 c 0,-1.382455 -1.12069,-2.503166 -2.50317,-2.503166 l -7.78723,-0.0038 v 9.296912 c -0.002,0.185811 -0.0246,0.37077 -0.0675,0.551472 -0.002,0.0076 -0.002,0.01513 -0.004,0.02251 l -0.0133,0.04977 c -0.009,0.03671 -0.0189,0.07323 -0.0284,0.109556 l -6.45546,25.127434 -0.008,0.0057 c -0.25851,1.054806 -1.16771,1.822701 -2.25092,1.900851 l -0.0152,0.01325 h -0.16141 -0.38134 l 2.27926,45.11949 7.01771,25.756172 c 0.0473,0.18656 0.0717,0.3776 0.0713,0.57005 l 0.008,4.84303 c 0,1.38242 -1.12069,2.50316 -2.50316,2.50314 -0.66765,-0.002 -1.30658,-0.27194 -1.77472,-0.74799 -0.009,-0.008 -0.0208,-0.0113 -0.0302,-0.0215 C 142.89135,109.98278 123.4824,90.488308 104.00507,71.017693 l -0.0284,-0.07437 c -0.41166,-0.458565 -0.63971,-1.052855 -0.64046,-1.669095 l 0.925,-17.82721 h -0.3882 c -0.81836,-0.002 -1.58402,-0.404125 -2.05044,-1.076545 -0.006,-0.0095 -0.0132,-0.0189 -0.0216,-0.0284 -0.14551,-0.21389 -0.25709,-0.449088 -0.33051,-0.69717 L 94.950735,24.23782 c -0.0473,-0.186567 -0.07076,-0.377638 -0.07038,-0.570053 V 9.711662 A 55.168745,55.168265 0 0 0 78.718225,7.093131 Z M 24.299663,140.32216 21.63222,142.9886 c -0.935771,0.93623 -0.936811,2.45278 -0.0019,3.39003 l 9.711561,9.72323 10.075292,10.08697 c 0.300627,0.30123 0.676657,0.51733 1.088298,0.62578 l 125.317279,32.96548 c 0.82518,0.21709 1.70395,-0.02 2.30763,-0.62286 l 9.88168,-9.89238 9.90515,-9.91781 c 0.93418,-0.93713 0.93316,-2.45391 -0.002,-3.39004 l -12.96764,-12.96166 -7.22695,7.23568 -9.88169,9.89242 c -0.60368,0.60282 -1.48244,0.83995 -2.30761,0.62286 L 32.213155,147.78178 c -0.411603,-0.10842 -0.786724,-0.32454 -1.087314,-0.6258 z"
       class="logo-secondary" />
    <path
       id="logo-cutout"
       style="fill:currentColor;stroke-width:0;stroke-linejoin:round;-inkscape-stroke:none"
       d="m 78.720345,7.092734 -0.002,0.001 0.001,9.5e-4 a 55.168745,55.168265 0 0 0 -55.16858,55.168309 55.168745,55.168265 0 0 0 13.542572,35.946785 l 3.741077,-3.73911 A 50.06356,50.063245 0 0 1 28.65685,62.262028 50.06356,50.063245 0 0 1 78.7204,12.198781 50.06356,50.063245 0 0 1 94.880575,15.021685 V 9.7112835 A 55.168745,55.168265 0 0 0 78.7204,7.092734 Z m 87.948575,7.279692 v 4.403033 l 2.81412,-0.01136 c 1.26228,0 2.28513,1.023794 2.28513,2.286077 v 10.519137 c -0.001,0.169538 -0.0227,0.338584 -0.0617,0.50358 -0.002,0.0095 -0.002,0.01324 -0.004,0.02063 l -0.009,0.04598 c -0.0113,0.03368 -0.017,0.06641 -0.0263,0.09972 l -6.60213,22.943022 -0.008,0.0057 c -0.19214,0.784095 -0.78547,1.373995 -1.53025,1.61241 l -0.89176,3.47216 1.94093,46.443415 7.38145,26.87966 c 0.0435,0.17029 0.0659,0.34441 0.0655,0.52019 l 0.004,15.2116 4.92032,4.91832 -0.004,-20.46335 c 3.2e-4,-0.19244 -0.024,-0.38355 -0.0713,-0.57006 l -7.0177,-25.75616 -2.27927,-45.681725 h 0.38135 0.16235 l 0.0152,-0.01325 c 1.0832,-0.07815 1.99239,-0.84601 2.2509,-1.900835 l 0.008,-0.0057 6.45546,-25.127455 c 0.009,-0.03633 0.0197,-0.07285 0.0284,-0.109556 l 0.0132,-0.04996 c 0.002,-0.0076 5e-4,-0.01513 0.004,-0.02251 0.043,-0.180702 0.0655,-0.365737 0.0676,-0.551472 v -17.11537 c 0,-1.382454 -1.12071,-2.503165 -2.50318,-2.503165 z M 24.301652,140.32059 21.632241,142.989 c -0.935752,0.93622 -0.936868,2.45278 -0.0019,3.39002 l 9.711541,9.72324 10.075292,10.08697 c 0.300628,0.30123 0.676658,0.51733 1.088298,0.62577 l 125.317298,32.96549 c 0.82517,0.21709 1.70395,-0.02 2.30763,-0.62287 l 9.88168,-9.89237 9.90515,-9.91781 c 0.93418,-0.93715 0.93308,-2.45389 -0.002,-3.39002 l -12.96762,-12.9617 v -0.002 l -2.72222,2.72512 9.37812,9.58927 c 0.85376,0.85474 0.85498,2.24004 0.002,3.09571 -6.02183,6.0295 -10.04144,8.80463 -16.06433,14.83318 -0.55121,0.55204 -1.35368,0.76733 -2.10716,0.56907 L 47.239055,163.17571 c -0.37586,-0.099 -0.719023,-0.29694 -0.993444,-0.57203 L 28.178719,146.76923 c -0.759705,-0.76156 -0.803395,-1.92377 -0.21022,-2.77695 z"
       class="logo-cutout" />
    <path
       id="logo-primary"
       style="fill:currentColor;stroke-width:0;stroke-linecap:round;stroke-linejoin:round;stroke-opacity:1;paint-order:stroke fill markers"
       d="m 152.53837,-0.39415054 -0.004,9.78e-4 c -1.35624,0.26371089 -2.50214,1.12052294 -2.50214,2.50220014 v 9.8e-4 h -0.001 V 11.281805 H 140.01857 V 2.1276057 c 3.4e-4,-0.00379 5e-4,-0.0099 10e-4,-0.01368 0,-1.38245295 -1.12071,-2.50317793 -2.50318,-2.50317793 h -0.001 -13.4888 -0.20338 l -0.0157,0.0156448 c -1.20605,0.10879942 -2.1613,1.06527838 -2.26851,2.27143843 l -0.0148,0.014665 V 2.1129385 11.276917 H 111.51167 V 2.1129385 A 2.5031778,2.503156 0 0 0 109.0085,-0.39023932 H 97.38339 c -1.382475,0 -2.50318,1.12072497 -2.50318,2.50317782 V 23.668624 c -3.4e-4,0.192415 0.0231,0.383512 0.07041,0.570061 l 6.51999,25.407254 c 0.0734,0.248082 0.18506,0.483284 0.3305,0.697174 0.008,0.0095 0.0152,0.0189 0.0215,0.02835 0.46642,0.672455 1.23209,1.07446 2.05045,1.07656 h 0.38819 l -0.925,17.82732 c 10e-4,0.61624 0.2288,1.210545 0.64046,1.66911 l 0.0284,0.07431 c 19.47735,19.470635 38.88625,38.964457 58.34555,58.453107 0.009,0.009 0.0211,0.0132 0.0303,0.0215 0.46814,0.47605 1.10707,0.74535 1.77472,0.74802 1.38247,2e-5 2.50317,-1.12072 2.50317,-2.50318 l -0.008,-4.84306 c 3.3e-4,-0.19245 -0.024,-0.38353 -0.0714,-0.57006 l -7.01778,-25.755347 -2.27926,-45.11978 h 0.38134 0.16134 l 0.0157,-0.0127 c 1.08321,-0.07814 1.9924,-0.84604 2.25091,-1.900849 l 0.008,-0.0059 6.45546,-25.127604 c 0.009,-0.03633 0.0197,-0.07281 0.0284,-0.109518 l 0.0127,-0.04988 c 0.002,-0.0076 0.001,-0.01514 0.004,-0.0225 0.0429,-0.180702 0.0654,-0.365728 0.0675,-0.551482 V 2.1139164 c 0,-1.38245295 -1.1207,-2.50317792 -2.50318,-2.50317792 z M 78.991875,62.262543 c -3.27335,0 -6.262975,1.61713 -9.5375,4.235845 -3.27452,2.61874 -6.998165,6.35843 -11.94485,11.303415 L 23.546485,111.75311 11.34056,123.95512 c -0.93577,0.93622 -0.936723,2.45282 -0.002,3.39005 l 9.711549,9.7223 10.075289,10.088 c 0.300588,0.30125 0.676694,0.51736 1.088295,0.6258 l 125.317297,32.9647 c 0.82517,0.21707 1.70394,-0.02 2.30762,-0.62286 l 9.88168,-9.89244 9.90516,-9.91787 c 0.93418,-0.93711 0.93321,-2.45294 -0.002,-3.38907 L 160.26106,137.56908 100.47618,77.801803 c -4.94668,-4.945 -8.671265,-8.684695 -11.94583,-11.303415 -3.27452,-2.618715 -6.265105,-4.235845 -9.538475,-4.235845 z"
       class="logo-primary" />
  </g>
</svg>
