<?xml version="1.0" encoding="UTF-8" standalone="no"?>

<svg
   width="150"
   height="120"
   viewBox="0 0 150 120"
   version="1.1"
   id="svg"
   xmlns="http://www.w3.org/2000/svg"
   xmlns:svg="http://www.w3.org/2000/svg">
  <defs
     id="defs" />
  <g
     id="main"
     transform="translate(0,-40.38628)">
    <path
       id="shadow"
       style="fill:currentColor;fill-opacity:1;stroke:none;stroke-width:0;stroke-linecap:round;stroke-linejoin:round;-inkscape-stroke:none;paint-order:stroke fill markers"
       class="img-shadow"
       d="m 56.96875,48.046436 c -2.72812,0 -5.220126,1.348692 -7.949219,3.53125 -2.729077,2.182558 -5.834308,5.298559 -9.957031,9.419922 L 10.757812,89.294483 0.5859375,99.464405 c -0.77989379,0.780305 -0.78107826,2.043085 -0.001953,2.824215 l 8.09375,8.10352 2.7089845,2.71289 -2.2246095,2.22266 c -0.7798942,0.78029 -0.7791252,2.04311 0,2.82421 l 8.0917965,8.10352 8.398438,8.4082 c 0.250537,0.25108 0.563197,0.43111 0.90625,0.52149 l 104.443356,27.47461 c 0.68772,0.18092 1.42071,-0.017 1.92383,-0.51953 l 8.23633,-8.2461 8.25391,-8.26562 c 0.77856,-0.78104 0.7789,-2.04401 0,-2.82422 l -10.8086,-10.80274 2.23242,-2.23632 c 0.77858,-0.78104 0.77696,-2.04401 -0.002,-2.82422 L 124.70117,110.81011 74.873047,60.997608 c -4.122727,-4.121363 -7.225941,-7.23739 -9.955078,-9.419922 -2.729078,-2.182558 -5.221098,-3.53125 -7.949219,-3.53125 z" />
    <path
       id="lower"
       style="fill:currentColor;fill-opacity:1;stroke:none;stroke-width:0;stroke-linecap:round;stroke-linejoin:round;-inkscape-stroke:none;paint-order:stroke fill markers"
       d="m 57.596434,62.44027 c -2.729079,2.182575 -5.832956,5.299457 -9.955687,9.420824 L 19.33559,100.15726 9.1626769,110.32721 c -0.779895,0.78029 -0.780576,2.04453 -0.00145,2.82564 l 8.0933931,8.10313 8.397536,8.40728 c 0.250538,0.25107 0.563365,0.431 0.906418,0.52139 l 104.444046,27.47438 c 0.68772,0.18092 1.41983,-0.0166 1.92295,-0.51914 l 8.23574,-8.2447 8.25519,-8.2657 c 0.77857,-0.78104 0.77791,-2.04469 -0.001,-2.8249 L 133.27759,121.67399 83.450477,71.861094 c -4.122727,-4.121367 -7.226551,-7.238279 -9.955672,-9.420824 -2.729095,-2.182545 -5.22144,-3.529803 -7.949563,-3.529803 -2.728124,0 -5.219713,1.347258 -7.948808,3.529803 z"
       class="img-secondary" />
    <path
       id="upper"
       style="fill:currentColor;fill-opacity:1;stroke:none;stroke-width:0;stroke-linecap:round;stroke-linejoin:round;-inkscape-stroke:none;paint-order:stroke fill markers"
       d="m 49.019118,46.577098 c -2.72908,2.18256 -5.83296,5.299457 -9.955687,9.420824 L 10.758271,84.294076 0.58535829,94.464017 c -0.77989457,0.780303 -0.78057591,2.044528 -0.00145,2.825654 l 8.09339221,8.103129 8.3975375,8.40727 c 0.250537,0.25108 0.563365,0.43102 0.906417,0.52139 l 104.444055,27.47439 c 0.68771,0.18093 1.41982,-0.0166 1.92294,-0.51913 l 8.23574,-8.24472 8.25519,-8.2657 c 0.77858,-0.78104 0.77791,-2.04468 -0.001,-2.82489 L 124.70028,105.81081 74.873161,55.997922 C 70.75043,51.876555 67.64661,48.759631 64.91747,46.577098 62.18839,44.394538 59.696049,43.04728 56.967925,43.04728 c -2.728123,0 -5.219712,1.347258 -7.948807,3.529818 z"
       class="img-primary" />
  </g>
</svg>
