<?xml version="1.0" encoding="UTF-8" standalone="no"?>

<svg
   width="150"
   height="150"
   viewBox="0 0 39.6875 39.6875"
   version="1.1"
   id="svg1"
   xmlns="http://www.w3.org/2000/svg"
   xmlns:svg="http://www.w3.org/2000/svg">
  <defs
     id="defs" />
  <g
     id="layer"
     transform="translate(0,-40.38628)">
    <path
       id="shadow-lower"
       style="fill:#000000;fill-opacity:0;stroke:none;stroke-width:0;stroke-linecap:round;stroke-linejoin:round;-inkscape-stroke:none;paint-order:stroke fill markers"
       d="m 15.239057,51.248432 c -0.722069,0.577473 -1.543303,1.402148 -2.634109,2.492593 L 5.1158751,61.22772 2.4242918,63.918517 c -0.2063472,0.206451 -0.2065274,0.540948 -3.836e-4,0.747617 l 2.1413768,2.143954 2.2218483,2.224426 c 0.066288,0.06643 0.149057,0.114036 0.2398229,0.13795 l 27.6341548,7.269263 c 0.181958,0.04787 0.375663,-0.0044 0.50878,-0.137355 l 2.179041,-2.181411 2.184184,-2.186965 c 0.205998,-0.20665 0.205822,-0.54099 -3.83e-4,-0.747421 L 35.263031,66.920687 22.079606,53.741025 c -1.090805,-1.090445 -1.912025,-1.915128 -2.634105,-2.492593 -0.722073,-0.577465 -1.381506,-0.933927 -2.103322,-0.933927 -0.721816,0 -1.381049,0.356462 -2.103122,0.933927 z"
       class="img-shadow" />
    <path
       id="shadow-upper"
       style="fill:#000000;fill-opacity:0;stroke:none;stroke-width:0;stroke-linecap:round;stroke-linejoin:round;-inkscape-stroke:none;paint-order:stroke fill markers"
       d="m 12.969642,47.051301 c -0.722069,0.577469 -1.543304,1.402148 -2.634109,2.492593 l -7.4890735,7.486691 -2.69158327,2.690797 c -0.20634711,0.206455 -0.20652738,0.540948 -3.8354e-4,0.747621 l 2.14137671,2.143951 2.2218483,2.224425 c 0.066288,0.06643 0.1490571,0.11404 0.2398229,0.13795 l 27.6341554,7.269267 c 0.181957,0.04787 0.375663,-0.0044 0.508779,-0.137355 l 2.179041,-2.181415 2.184185,-2.186965 c 0.205998,-0.20665 0.205821,-0.54099 -3.84e-4,-0.747421 L 32.993616,62.723553 19.810191,49.543894 c -1.090806,-1.090445 -1.912025,-1.915131 -2.63411,-2.492593 -0.722069,-0.577469 -1.381501,-0.933931 -2.103317,-0.933931 -0.721816,0 -1.381049,0.356462 -2.103122,0.933931 z"
       class="img-shadow" />
    <path
       id="lower"
       style="fill:#ff9f1c;fill-opacity:1;stroke:none;stroke-width:0;stroke-linecap:round;stroke-linejoin:round;-inkscape-stroke:none;paint-order:stroke fill markers"
       d="m 15.239057,50.190148 c -0.722069,0.577473 -1.543303,1.402148 -2.634109,2.492593 l -7.4890729,7.486695 -2.6915833,2.690797 c -0.2063472,0.206451 -0.2065274,0.540948 -3.836e-4,0.747617 l 2.1413768,2.143954 2.2218483,2.224426 c 0.066288,0.06643 0.149057,0.114036 0.2398229,0.13795 l 27.6341548,7.269263 c 0.181958,0.04787 0.375663,-0.0044 0.50878,-0.137355 l 2.179041,-2.181411 2.184184,-2.186965 c 0.205998,-0.20665 0.205822,-0.54099 -3.83e-4,-0.747421 L 35.263031,65.862403 22.079606,52.682741 c -1.090805,-1.090445 -1.912025,-1.915128 -2.634105,-2.492593 -0.722073,-0.577465 -1.381506,-0.933927 -2.103322,-0.933927 -0.721816,0 -1.381049,0.356462 -2.103122,0.933927 z"
       class="img-fill-secondary" />
    <path
       id="upper"
       style="fill:#534260;fill-opacity:1;stroke:none;stroke-width:0;stroke-linecap:round;stroke-linejoin:round;-inkscape-stroke:none;paint-order:stroke fill markers"
       d="m 12.969642,45.993017 c -0.722069,0.577469 -1.543304,1.402148 -2.634109,2.492593 l -7.4890735,7.486691 -2.69158327,2.690797 c -0.20634711,0.206455 -0.20652738,0.540948 -3.8354e-4,0.747621 l 2.14137671,2.143951 2.2218483,2.224425 c 0.066288,0.06643 0.1490571,0.11404 0.2398229,0.13795 l 27.6341554,7.269267 c 0.181957,0.04787 0.375663,-0.0044 0.508779,-0.137355 l 2.179041,-2.181415 2.184185,-2.186965 c 0.205998,-0.20665 0.205821,-0.54099 -3.84e-4,-0.747421 L 32.993616,61.665269 19.810191,48.48561 c -1.090806,-1.090445 -1.912025,-1.915131 -2.63411,-2.492593 -0.722069,-0.577469 -1.381501,-0.933931 -2.103317,-0.933931 -0.721816,0 -1.381049,0.356462 -2.103122,0.933931 z"
       class="img-fill-primary" />
  </g>
</svg>
