<?xml version="1.0" encoding="UTF-8" standalone="no"?>
<svg
   width="400"
   height="400"
   version="1.1"
   id="svg"
   viewbox="0 0 400 400"
   xmlns="http://www.w3.org/2000/svg"
   xmlns:svg="http://www.w3.org/2000/svg">
  <defs
     id="defs" />
  <g
     id="main">
    <path
       id="primary"
       style="fill:currentColor;stroke-linejoin:round;-inkscape-stroke:none;paint-order:stroke fill markers"
       d="m 69.562496,-16.169922 -62.912108,0.0098 c -2.9104113,4.87e-4 -5.344684,0.01587 -7.53515602,0.07422 -1.38234188,0.03929 -2.64297288,0.107985 -3.79101558,0.212889 -0.2760567,0.02445 -0.6424532,0.02151 -0.9062498,0.05078 -3.1011541,0.345078 -5.5255426,1.068485 -7.2480466,2.791015 -1.721766,1.722463 -2.446013,4.1455733 -2.791016,7.2460943 -0.02589,0.2321839 -0.02283,0.5552307 -0.04492,0.7968748 -0.114179,1.2126352 -0.184509,2.5522078 -0.22461,4.02929691 -0.05439,2.15701939 -0.06797,4.56015059 -0.06836,7.40820299 l -0.0059,35.738279 V 56.109357 190.61912 c 0,0.98509 0.79814,1.78358 1.783203,1.78516 0.65084,-0.0833 0.530356,-0.0329 2.113281,-0.94532 L 5.7031243,181.08982 c 1.8170018,-1.06016 1.8828393,-1.09985 1.8437499,-2.93945 L 7.5527325,71.183579 C 7.691392,57.838532 7.665317,57.946139 17.537108,52.072251 L 81.130855,14.966796 C 93.238564,7.9862896 93.331192,7.9910518 106.66992,8.0332026 c 64.83147,0.042573 132.53013,0.2851805 148.39453,0.1035137 5.30211,-0.060703 5.7523,-0.4290958 8.45312,-1.9003906 0.73854,-0.4309281 26.15996,-15.2345164 29.86914,-17.4277347 1.86913,-1.105221 2.84935,-4.869122 -1.25586,-4.871093 l -200.490229,-0.09765 c -0.03515,-0.0013 -0.06792,-0.0098 -0.103521,-0.0098 l -14.876946,0.0019 z M 414.18164,207.5957 c -0.65084,0.0833 -0.53035,0.0329 -2.11329,0.94531 l -17.77149,10.36914 c -1.81701,1.06017 -1.88281,1.09986 -1.84373,2.93945 l -0.008,106.9668 c -0.13871,13.34504 -0.11074,13.23744 -9.98241,19.11133 L 318.8694,385.0332 c -12.10771,6.98049 -12.20034,6.97573 -25.53906,6.93358 -64.83148,-0.0427 -132.53014,-0.28497 -148.39453,-0.10356 -5.30211,0.0609 -5.75426,0.42913 -8.45508,1.90039 -0.73854,0.4309 -26.15995,15.23452 -29.86914,17.42774 -1.86913,1.10521 -2.84739,4.86913 1.25781,4.87109 l 200.49023,0.0975 c 0.0352,10e-4 0.0679,0.0113 0.10352,0.0113 l 14.875,-0.002 7.09766,0.002 62.91209,-0.008 c 2.91042,-4.9e-4 5.34667,-0.0189 7.53713,-0.0741 1.38236,-0.0393 2.64299,-0.1081 3.79102,-0.21279 0.2759,-0.0227 0.64248,-0.0227 0.90625,-0.0507 3.10114,-0.34507 5.52556,-1.06851 7.24804,-2.79103 1.7218,-1.72244 2.44407,-4.14553 2.78907,-7.24607 0.0265,-0.23206 0.0227,-0.55525 0.045,-0.79687 0.11414,-1.21267 0.18671,-2.55028 0.22677,-4.02736 0.0544,-2.15705 0.0661,-4.56015 0.0665,-7.40821 l 0.004,-35.73828 v -13.92187 l 0.004,-134.51367 c 0,-0.98509 -0.79812,-1.78358 -1.78318,-1.78516 z"
       class="img-primary" />
    <path
       id="secondary"
       style="fill:currentColor;stroke-linejoin:round;-inkscape-stroke:none;paint-order:stroke fill markers"
       d="m 60.527339,-25 -62.912107,0.0098 c -5.2052434,8.54e-4 -9.133171,-0.0064 -12.234375,0.33789 -3.101137,0.345078 -5.525531,1.066547 -7.248047,2.789063 -1.722555,1.722528 -2.443986,4.146882 -2.789062,7.248046 -0.345078,3.101177 -0.337047,7.0291319 -0.33789,12.234375 L -25,33.355453 V 181.78906 c 0,0.98509 0.798128,1.78358 1.783203,1.78516 0.513718,0 0.529424,4.5e-4 2.113281,-0.94532 l 5.138672,-2.99804 V 56.109372 42.185547 l 0.0059,-35.7363288 c 4.16e-4,-2.8480498 0.01398,-5.2531388 0.06836,-7.41015621 0.0401,-1.47708929 0.110431,-2.81470729 0.22461,-4.02734379 0.02215,-0.2416441 0.01886,-0.5646992 0.04492,-0.7968748 0.345003,-3.1005165 1.069252,-5.5236304 2.791016,-7.2460934 1.722504,-1.722528 4.1468974,-2.445946 7.2480466,-2.791016 0.2637959,-0.02944 0.6301938,-0.02623 0.9062498,-0.05078 1.1480406,-0.104882 2.4086751,-0.17362 3.79101558,-0.212889 2.19046992,-0.05839 4.62474822,-0.07373 7.53515602,-0.07422 l 62.912108,-0.0098 7.097658,0.002 14.876953,-0.002 c 0.03553,0 0.06837,0.0085 0.103522,0.0098 l 187.328119,0.0918 c 2.16013,-1.260556 6.77344,-3.953125 6.77344,-3.953125 2.3408,-1.557894 2.17979,-4.779657 -1.25782,-4.871093 z M 423.21875,216.42578 c -0.51371,0 -0.52944,-4.5e-4 -2.11328,0.94531 l -5.13869,2.99805 v 123.52148 13.92383 l -0.008,35.73633 c -4.1e-4,2.84807 -0.0151,5.25313 -0.0684,7.41015 -0.0401,1.47711 -0.11036,2.81472 -0.2245,4.02735 -0.0227,0.24151 -0.0189,0.5647 -0.045,0.79687 -0.34507,3.10054 -1.06923,5.52363 -2.79099,7.24607 -1.72252,1.72252 -4.14693,2.44596 -7.24804,2.79103 -0.26381,0.0302 -0.6302,0.0265 -0.90625,0.0507 -1.14803,0.10469 -2.40869,0.17348 -3.79102,0.21279 -2.19046,0.0586 -4.62474,0.0737 -7.53517,0.0741 l -62.9121,0.0113 -7.09766,-0.002 -14.87695,0.002 c -0.0355,0 -0.0684,-0.008 -0.10352,-0.0113 l -187.32812,-0.0918 c -2.16013,1.26059 -6.77344,3.95312 -6.77344,3.95312 -2.3408,1.55793 -2.17979,4.77967 1.25781,4.8711 l 223.95703,0.10734 62.9121,-0.0113 c 5.20528,-8.7e-4 9.13323,0.008 12.23437,-0.33789 3.10118,-0.34507 5.52556,-1.06655 7.24808,-2.78907 1.72255,-1.72252 2.44399,-4.14693 2.78906,-7.24807 0.34507,-3.10122 0.33713,-7.02909 0.33789,-12.23437 l 0.008,-35.73632 V 218.21093 c 0,-0.98509 -0.79809,-1.78358 -1.78318,-1.78515 z"
       class="img-secondary" />
    <path
       id="shadow"
       style="fill:currentColor;stroke-linejoin:round;-inkscape-stroke:none;paint-order:stroke fill markers"
       d="m 287.22655,-22.064453 c -0.17295,0.747593 -0.66483,1.497534 -1.48437,2.042968 0,0 -4.61331,2.692572 -6.77344,3.953125 l 7.66992,0.0039 c 0.58593,-0.34196 1.92969,-1.126953 1.92969,-1.126953 2.3408,-1.557894 2.18174,-4.781609 -1.25586,-4.873047 z m 7.66797,8.830078 c -0.22631,0.829274 -0.80245,1.625887 -1.50781,2.042968 -3.70918,2.1932178 -29.1306,16.9968049 -29.86914,17.4277346 -2.70081,1.4712914 -3.15103,1.8396914 -8.45312,1.9003906 C 239.20008,8.3184001 171.50127,8.0757544 106.66992,8.0332045 93.331223,7.9910515 93.238537,7.9863044 81.130855,14.966798 L 17.535154,52.072266 C 7.6634027,57.946139 7.6914026,57.83857 7.5527317,71.183594 l -0.00586,106.966796 c 0.039088,1.83959 -0.026759,1.87929 -1.8437498,2.93945 l -17.7714849,10.36914 c -0.601454,0.3467 -0.823,0.46688 -1.068359,0.5957 v 1.39258 c -2e-6,0.98509 0.796189,1.78358 1.78125,1.78516 0.650841,-0.0833 0.532322,-0.0329 2.1152348,-0.94531 L 8.5312487,183.91796 c 1.8170003,-1.06015 1.8828413,-1.0979 1.8437503,-2.93749 l 0.0078,-106.968754 C 10.521493,60.6667 10.49346,60.774276 20.365244,54.900388 L 83.958981,17.794921 c 12.10769,-6.980494 12.200364,-6.973789 25.539059,-6.93164 64.83135,0.04257 132.52821,0.281272 148.39258,0.09961 5.3021,-0.0607 5.75427,-0.429093 8.45508,-1.9003901 0.73854,-0.4309312 26.15996,-15.2306126 29.86914,-17.4238282 1.86911,-1.1052196 2.84933,-4.8710767 -1.25586,-4.8730467 z m -310.859366,192.865235 -5.138672,2.99804 c -0.580724,0.34678 -0.807418,0.46841 -1.068359,0.60742 v 1.38086 c -3e-6,0.9851 0.798127,1.78358 1.783203,1.78516 0.513713,0 0.527459,4.6e-4 2.111328,-0.94531 l 2.3125,-1.34961 z m 427.322266,25.13671 c -0.65083,0.0833 -0.53235,0.0329 -2.11525,0.94532 l -17.77149,10.36914 c -1.81701,1.06016 -1.88281,1.0979 -1.84373,2.9375 l -0.008,106.96875 c -0.13871,13.34502 -0.11074,13.23744 -9.98241,19.11132 l -63.59375,37.10546 c -12.10769,6.98052 -12.20037,6.97379 -25.53907,6.93165 -64.83134,-0.0427 -132.52821,-0.2812 -148.39257,-0.0998 -5.3021,0.0609 -5.75428,0.42909 -8.45508,1.90039 -0.73854,0.4309 -26.15996,15.23058 -29.86914,17.42381 -1.86911,1.10521 -2.84933,4.87109 1.25586,4.87306 h 0.0625 c 0.22632,-0.82927 0.80246,-1.62588 1.50782,-2.04299 3.70917,-2.19322 29.1306,-16.99684 29.86914,-17.42774 2.70081,-1.47126 3.15103,-1.83969 8.45312,-1.90039 15.86436,-0.18179 83.56318,0.0609 148.39453,0.10356 13.33869,0.0423 13.43138,0.0469 25.53906,-6.93358 l 63.59568,-37.10547 c 9.87178,-5.87388 9.84378,-5.76631 9.98245,-19.11133 l 0.008,-106.9668 c -0.0393,-1.83959 0.0265,-1.87928 1.84376,-2.93945 l 17.77149,-10.36914 c 0.60148,-0.3467 0.823,-0.46688 1.06836,-0.5957 v -1.39258 c 0,-0.98509 -0.79619,-1.78358 -1.78125,-1.78516 z m 9.03126,8.83008 c -0.51372,0 -0.52747,-4.5e-4 -2.11136,0.94532 l -2.3125,1.3496 v 4.47657 l 5.13868,-2.99805 c 0.58072,-0.34677 0.80742,-0.4684 1.06836,-0.60742 v -1.38086 c 0,-0.98509 -0.79812,-1.78358 -1.78318,-1.78516 z m -307.02736,202.4668 c -0.58592,0.34204 -1.92968,1.12694 -1.92968,1.12694 -2.3408,1.55788 -2.18175,4.78163 1.25585,4.87306 h 0.0859 c 0.17295,-0.74759 0.66484,-1.49757 1.48438,-2.04299 0,0 4.61331,-2.69253 6.77343,-3.95312 z"
       class="img-shadow" />
  </g>
</svg>
