<?xml version="1.0" encoding="UTF-8" standalone="no"?>

<svg
   width="200"
   height="200"
   version="1.1"
   id="svg1"
   viewbox="0 0 200 200"
   xmlns="http://www.w3.org/2000/svg"
   xmlns:svg="http://www.w3.org/2000/svg">
  <defs
     id="defs" />
  <g
     id="main">
    <path
       id="bat"
       style="fill:currentColor;stroke-width:3.77981;stroke-linejoin:round;-inkscape-stroke:none"
       d="m 88.163328,46.923598 c -4.36292,-0.14174 -8.93757,3.62355 -8.24866,8.61195 -1.01465,8.23219 -0.50402,16.97379 -4.11749,24.60145 -6.00952,3.30158 -20.07885,1.78637 -15.09487,-7.37362 1.46573,-5.45687 7.18924,-10.21277 5.08631,-16.20823 -2.00763,-5.34495 -8.19433,-5.08977 -12.65328,-3.47485 -13.92217,3.93376 -27.2495,10.81203 -38.118058,20.40189 -13.4990354,12.30244 -20.3782814,34.313402 -9.9909734,50.605312 8.0530174,12.07649 19.5073114,22.42511 33.0962014,27.73056 8.37337,1.77613 11.80505,-6.12964 6.97513,-14.49325 -4.82992,-8.36362 9.83829,-9.98807 14.79992,-2.97679 4.96163,7.01128 14.23041,-2.24101 14.82337,-5.67032 7.65971,-0.96653 13.76708,7.69259 16.39768,14.14555 1.13095,4.46226 2.77566,10.39145 8.50457,10.2547 0.13191,0.008 0.24908,-0.008 0.376842,-0.008 0.12776,0 0.24493,0.0151 0.37685,0.008 5.7289,0.13683 7.37357,-5.79241 8.50453,-10.25466 2.63063,-6.453 8.73801,-15.11212 16.39771,-14.14559 0.59294,3.42931 9.86171,12.68167 14.82335,5.67036 4.96164,-7.01132 19.62983,-5.38683 14.79991,2.97678 -4.82991,8.36362 -1.39822,16.26939 6.97515,14.49326 13.5889,-5.30549 25.04319,-15.65407 33.09618,-27.73056 10.38729,-16.29195 3.50808,-38.302912 -9.99098,-50.605312 -10.86853,-9.58987 -24.19583,-16.46817 -38.11803,-20.40193 -4.45897,-1.61488 -10.64564,-1.87006 -12.65329,3.47489 -2.10293,5.99546 3.62057,10.75136 5.0863,16.20823 4.98398,9.15999 -9.08533,10.67516 -15.09485,7.37358 -3.61346,-7.62762 -3.10285,-16.36922 -4.1175,-24.60141 0.68891,-4.9884 -3.88575,-8.75373 -8.24867,-8.61199 v -0.002 c -1.98315,0.0643 -3.92227,0.9369 -5.30311,2.8674 -2.05553,2.79725 -2.8883,7.74864 -6.533702,7.74861 -3.6454,-4e-5 -4.47813,-4.95136 -6.53366,-7.74861 -1.38084,-1.9305 -3.32,-2.80307 -5.30315,-2.8674 z"
       class="icon-primary" />
  </g>
</svg>
