<?xml version="1.0" encoding="UTF-8" standalone="no"?>

<svg
   width="200"
   height="200"
   version="1.1"
   id="svg"
   viewbox="0 0 200 200"
   xml:space="preserve"
   xmlns="http://www.w3.org/2000/svg"
   xmlns:svg="http://www.w3.org/2000/svg"><defs
     id="defs" /><g
     id="main"><path
       id="butterfly"
       style="fill:currentColor;stroke:#000000;stroke-width:0;-inkscape-stroke:none;paint-order:markers stroke fill"
       d="m 47.572266,46.007812 c -2.952477,0.151121 -5.31877,1.401594 -6.861328,3.826172 -1.752809,2.755086 -1.872142,4.175099 -1.351563,16.15625 0.768209,17.680202 2.724056,30.178151 5.402344,34.511716 4.114936,6.65812 12.084907,10.90238 21.460937,11.42969 2.649028,0.14899 4.818313,0.35525 4.820313,0.45898 0.0019,0.10377 -2.574453,1.34605 -5.72461,2.75977 -14.137415,6.34448 -16.661064,16.88755 -6.740234,28.1582 7.876162,8.94779 18.69165,12.60898 26.033203,8.8125 4.886845,-2.52706 10.93036,-11.91073 15.035156,-23.34375 0.10067,-0.2804 0.220416,-0.42298 0.353516,-0.48828 0.1331,0.0653 0.25285,0.20788 0.35352,0.48828 4.10479,11.43302 10.14831,20.81669 15.03515,23.34375 7.34156,3.79648 18.15703,0.13529 26.03321,-8.8125 9.92084,-11.27065 7.39719,-21.81372 -6.74024,-28.1582 -3.15015,-1.41372 -5.72661,-2.656 -5.72461,-2.75977 0.002,-0.10373 2.17129,-0.30999 4.82031,-0.45898 9.37604,-0.52731 17.34602,-4.77157 21.46094,-11.42969 2.67829,-4.333563 4.63414,-16.831514 5.40234,-34.511716 0.52058,-11.981151 0.40125,-13.401164 -1.35156,-16.15625 -4.93615,-7.758653 -18.3114,-3.487165 -32.3164,10.31836 -7.90756,7.794929 -20.29221,23.797645 -24.28711,31.382812 C 101.55309,93.685352 100.47786,95.420288 100,95.925781 99.52214,95.420288 98.446912,93.685352 97.314453,91.535156 93.319537,83.949989 80.934896,67.947273 73.027344,60.152344 63.398893,50.661045 54.067719,45.675349 47.572266,46.007812 Z"
       class="icon-secondary" /><path
       id="square"
       style="fill:currentColor;stroke-width:0"
       d="M 90.222652,0.06800366 33.58984,0.3765974 27.515621,2.7281599 C 15.839118,7.2480953 6.6772285,16.490497 2.9531203,27.505503 1.0704601,33.073935 0.99804222,35.747978 0.99804222,99.56605 c 0,73.27056 -0.11881137,71.72082 6.26171868,81.66602 5.7745851,9.00073 15.7701991,15.94283 25.8886721,17.97852 2.321774,0.46711 32.1787,0.77761 66.851563,0.71289 34.672874,0.0647 64.529794,-0.24578 66.851564,-0.71289 10.11847,-2.03569 20.11409,-8.97779 25.88868,-17.97852 6.38052,-9.9452 6.26172,-8.39547 6.26172,-81.66602 0,-63.818072 -0.0724,-66.492115 -1.95508,-72.060547 -3.72411,-11.015006 -12.886,-20.2574087 -24.5625,-24.7773431 L 166.41016,0.3765974 109.77735,0.06800366 Z M 47.572262,46.007456 c 6.495456,-0.332464 15.826622,4.653224 25.455078,14.144532 7.907564,7.794937 20.292192,23.797637 24.287109,31.382812 1.132457,2.150198 2.207691,3.885131 2.685547,4.390625 0.477864,-0.505494 1.553094,-2.240427 2.685554,-4.390625 3.99491,-7.585175 16.37955,-23.587875 24.28711,-31.382812 14.00502,-13.805539 27.38024,-18.077021 32.3164,-10.31836 1.75281,2.755088 1.87215,4.175087 1.35157,16.15625 -0.76821,17.680219 -2.72406,30.178155 -5.40235,34.511722 -4.11493,6.65812 -12.08488,10.90238 -21.46093,11.42969 -2.64903,0.14899 -4.81832,0.35524 -4.82032,0.45898 -0.002,0.10377 2.57446,1.34605 5.72461,2.75977 14.13744,6.34449 16.66109,16.88753 6.74024,28.1582 -7.87618,8.9478 -18.69164,12.60898 -26.03321,8.8125 -4.88685,-2.52707 -10.93036,-11.91072 -15.03516,-23.34375 -0.10067,-0.2804 -0.22041,-0.42298 -0.353514,-0.48828 -0.133096,0.0653 -0.252842,0.20788 -0.353516,0.48828 -4.104797,11.43303 -10.148309,20.81668 -15.035156,23.34375 -7.341567,3.79648 -18.157035,0.1353 -26.033203,-8.8125 -9.920847,-11.27067 -7.397196,-21.81371 6.740234,-28.1582 3.150162,-1.41372 5.72651,-2.656 5.72461,-2.75977 -0.0023,-0.10374 -2.171285,-0.30999 -4.820313,-0.45898 C 56.846605,111.40398 48.876659,107.15972 44.761715,100.5016 42.08343,96.168031 40.127577,83.670097 39.359371,65.989878 38.838787,54.008715 38.958117,52.588716 40.710933,49.833628 c 1.542552,-2.424581 3.908848,-3.675051 6.861329,-3.826172 z"
       class="icon-primary" /></g></svg>
