<?xml version="1.0" encoding="UTF-8" standalone="no"?>

<svg
   width="200"
   height="200"
   version="1.1"
   id="svg"
   viewbox="0 0 200 200"
   xmlns="http://www.w3.org/2000/svg"
   xmlns:svg="http://www.w3.org/2000/svg">
  <defs
     id="defs" />
  <g
     id="main">
    <path
       id="envelope"
       style="fill:currentColor;stroke-linecap:round;stroke-linejoin:round;-inkscape-stroke:none;paint-order:stroke fill markers"
       d="m 185.96155,34.955448 a 6.4319588,6.4319588 0 0 1 1.41244,11.217471 l -83.66414,59.090021 a 6.4319588,6.4319588 0 0 1 -7.382584,0.0227 L 11.377672,46.194429 A 6.4319588,6.4319588 0 0 1 11.141283,35.986934 C 4.2806262,39.161423 -4.5887947e-7,47.05625 -4.5887947e-7,55.329383 V 144.6843 C -4.5887947e-7,155.39448 7.1551659,165.51536 17.824491,165.51536 H 182.16772 c 10.66927,0 17.83229,-10.12088 17.83229,-20.83106 V 55.329383 c 0,-9.383932 -5.50024,-18.307334 -14.03846,-20.373935 z"
       class="icon-primary" />
    <path
       id="flap"
       style="fill:currentColor;stroke-linejoin:round;-inkscape-stroke:none"
       d="m 15.048458,34.484636 a 6.4319588,6.4319588 0 0 0 -3.670786,11.709793 l 84.949594,59.091951 a 6.4319588,6.4319588 0 0 0 7.382584,-0.0227 l 83.66414,-59.090025 a 6.4319588,6.4319588 0 0 0 -3.71376,-11.688283 z"
       class="icon-secondary" />
  </g>
</svg>
