<?xml version="1.0" encoding="UTF-8" standalone="no"?>

<svg
   width="200"
   height="200"
   version="1.1"
   id="svg"
   viewbox="0 0 200 200"
   xmlns="http://www.w3.org/2000/svg"
   xmlns:svg="http://www.w3.org/2000/svg">
  <defs
     id="defs" />
  <g
     id="main">
    <path
       id="fist"
       style="fill:currentColor;stroke-linejoin:round;-inkscape-stroke:none"
       d="m 87.518797,0.06949308 c -0.681103,-0.09335354 -1.371806,-0.09259764 -2.05272,0.0019653 -2.06436,0.29026526 -3.914763,1.42679742 -5.107368,3.13667892 L 66.224061,23.46971 C 65.589223,23.278468 64.931806,23.171886 64.269,23.153367 c -2.34732,0.166297 -4.480539,1.424529 -5.761671,3.398409 l -30.345445,46.7496 c -1.661405,2.562347 -1.603466,5.876133 0.146494,8.378839 l 40.630517,58.153775 -6.851507,45.19883 c -0.629925,4.16335 2.289894,8.02939 6.466743,8.56245 l 49.636289,6.34173 c 0.0302,8.3e-4 0.0586,10e-4 0.0881,0.002 -3.66026,-0.42486 -6.46978,-3.44551 -6.62886,-7.12689 l -2.25194,-53.12651 c -0.0151,-0.32239 -0.004,-0.64535 0.0227,-0.9668 l 0.85545,-9.89834 L 85.531878,89.894986 68.899237,82.748565 C 64.97473,81.059622 63.251594,76.438508 65.112175,72.592418 l 7.058533,-14.572147 c 1.407182,-2.899062 4.508844,-4.575306 7.705012,-4.164022 l 28.70288,2.230432 c 5.18021,0.671994 8.10437,6.300986 5.67574,10.92569 l -5.3066,10.089779 26.72243,19.044727 16.3944,-13.175662 c 3.65677,-2.88402 9.03035,-1.773264 11.24403,2.324201 l 7.73433,-8.320257 c 2.94626,-3.175419 2.59798,-8.179282 -0.75976,-10.915901 L 91.244775,1.6906699 C 90.175442,0.81768201 88.885916,0.25672929 87.51823,0.06956867 Z M 120.79,199.78461 c -0.76671,0.17575 -1.55628,0.22979 -2.33981,0.16025 0.78353,0.0695 1.5731,0.0151 2.33981,-0.16025 z"
       class="icon-primary" />
    <path
       id="shadow"
       style="fill:currentColor;stroke-linejoin:round;-inkscape-stroke:none"
       d="m 79.875538,53.855267 c -3.196175,-0.411247 -6.297841,1.264997 -7.705012,4.164059 l -7.058532,14.572109 c -1.860608,3.846091 -0.137461,8.467242 3.787077,10.156185 l 16.632656,7.146421 24.743943,38.925439 -0.85545,9.89835 c -0.0265,0.32126 -0.0378,0.64437 -0.0227,0.96679 l 2.25194,53.12652 c 0.19955,4.74739 4.70706,8.11522 9.3163,6.96085 l 17.2147,-4.31052 c 3.33484,-0.83651 5.67397,-3.83324 5.67574,-7.27141 V 145.8037 l 10.16397,-9.76553 c 1.12221,-1.07826 1.88125,-2.4789 2.17189,-4.00778 l 7.94132,-41.818002 c 1.29682,-6.84905 -6.63464,-11.608682 -12.06827,-7.242118 l -16.39439,13.175662 -26.72243,-19.044765 5.3066,-10.089741 c 2.42863,-4.624704 -0.49553,-10.253696 -5.67574,-10.92569 z"
       class="icon-secondary" />
  </g>
</svg>
