<?xml version="1.0" encoding="UTF-8" standalone="no"?>

<svg
   width="200"
   height="200"
   version="1.1"
   id="svg"
   viewbox="0 0 200 200"
   xmlns="http://www.w3.org/2000/svg"
   xmlns:svg="http://www.w3.org/2000/svg">
  <defs
     id="defs1" />
  <g
     id="main">
    <path
       id="pad"
       style="fill:currentColor;stroke-linecap:round;stroke-linejoin:round;-inkscape-stroke:none;paint-order:stroke fill markers"
       d="M 90.621094,0 C 80.969172,0 73.126953,7.8499945 73.126953,17.501953 v 55.625 H 17.494141 C 7.8422268,73.126953 0,80.976985 0,90.628906 v 18.750004 c 0,9.65192 7.8422268,17.49414 17.494141,17.49414 h 55.632812 v 55.63281 c 0,9.65185 7.842219,17.49414 17.494141,17.49414 h 18.749996 c 9.65192,0 17.50196,-7.84229 17.50196,-17.49414 v -55.63281 h 55.625 c 9.65193,0 17.50195,-7.84222 17.50195,-17.49414 V 90.628906 c 0,-9.651921 -7.85002,-17.501953 -17.50195,-17.501953 h -55.625 v -55.625 C 126.87305,7.8499945 119.02301,0 109.37109,0 Z M 100,12.185547 a 2.5003052,2.5003052 0 0 1 2.23633,1.388672 l 9.10156,18.277343 a 2.5003052,2.5003052 0 0 1 -2.24414,3.617188 H 90.90625 A 2.5003052,2.5003052 0 0 1 88.667969,31.851562 L 97.763672,13.574219 A 2.5003052,2.5003052 0 0 1 100,12.185547 Z m -67.095703,76.21875 a 2.5003052,2.5003052 0 0 1 2.5625,2.503906 v 18.189457 a 2.5003052,2.5003052 0 0 1 -3.611328,2.23632 l -18.285157,-9.0957 a 2.5003052,2.5003052 0 0 1 0,-4.472655 l 18.285157,-9.101563 a 2.5003052,2.5003052 0 0 1 1.048828,-0.259765 z m 133.835933,0.01563 a 2.5003052,2.5003052 0 0 1 1.41016,0.24414 l 18.2793,9.101563 a 2.5003052,2.5003052 0 0 1 0,4.47461 l -18.2793,9.09375 a 2.5003052,2.5003052 0 0 1 -3.61719,-2.23633 V 90.908203 a 2.5003052,2.5003052 0 0 1 2.20703,-2.488281 z M 90.90625,164.53711 h 18.1875 a 2.5003052,2.5003052 0 0 1 2.24414,3.60937 l -9.10156,18.28516 a 2.5003052,2.5003052 0 0 1 -4.472658,0 l -9.095703,-18.28516 a 2.5003052,2.5003052 0 0 1 2.238281,-3.60937 z"
       class="icon-primary" />
    <path
       id="arrows"
       style="fill:currentColor;stroke-linejoin:round;-inkscape-stroke:none"
       d="m 99.996059,12.186792 a 2.5003052,2.5003052 0 0 0 -2.23673,1.387794 l -9.094667,18.277927 a 2.5003052,2.5003052 0 0 0 2.236731,3.617192 h 18.189337 a 2.5003052,2.5003052 0 0 0 2.24413,-3.617192 L 102.23283,13.574586 A 2.5003052,2.5003052 0 0 0 99.996059,12.186792 Z M 32.900757,88.406276 A 2.5003052,2.5003052 0 0 0 31.852511,88.6648 L 13.56721,97.766837 a 2.5003052,2.5003052 0 0 0 0,4.473533 l 18.285301,9.09467 a 2.5003052,2.5003052 0 0 0 3.609814,-2.23677 V 90.908939 a 2.5003052,2.5003052 0 0 0 -2.561568,-2.502512 z m 133.836303,0.01512 a 2.5003052,2.5003052 0 0 0 -2.20725,2.487734 v 18.18933 a 2.5003052,2.5003052 0 0 0 3.61719,2.23677 l 18.27793,-9.09467 a 2.5003052,2.5003052 0 0 0 0,-4.473532 L 168.147,88.664989 a 2.5003052,2.5003052 0 0 0 -1.40994,-0.243406 z M 90.901393,164.53754 a 2.5003052,2.5003052 0 0 0 -2.236731,3.60983 l 9.094667,18.28529 a 2.5003052,2.5003052 0 0 0 4.473501,0 l 9.10203,-18.28529 a 2.5003052,2.5003052 0 0 0 -2.24413,-3.60983 z"
       class="icon-secondary" />
  </g>
</svg>
