<?xml version="1.0" encoding="UTF-8" standalone="no"?>

<svg
   width="200"
   height="200"
   version="1.1"
   id="svg"
   xml:space="preserve"
   viewbox="0 0 200 200"
   xmlns="http://www.w3.org/2000/svg"
   xmlns:svg="http://www.w3.org/2000/svg"><defs
     id="defs1" /><g
     id="main"><path
       id="circle"
       style="fill:currentColor;stroke-linecap:round;stroke-linejoin:round;paint-order:stroke fill markers"
       d="M 99.999979,1.2733323e-4 A 99.999676,99.999676 0 0 0 3.1503048e-4,99.999788 99.999676,99.999676 0 0 0 69.166105,194.95652 c 5.89e-4,1.9e-4 0.0014,-1.9e-4 0.002,0 0.321334,0.0302 0.613906,0.0457 0.837888,0.0189 3.348306,-0.39034 3.470434,-0.75288 3.849595,-11.40427 l 0.390624,-11.00387 -7.382788,0.61331 c -13.486735,1.11843 -21.487337,-3.35002 -27.308505,-15.24801 -2.075517,-4.24227 -5.979518,-9.30996 -9.033174,-11.72847 -6.206485,-4.91564 -5.892555,-6.74217 1.158199,-6.74217 4.381437,0 6.015571,1.07531 13.187458,8.6738 9.519079,10.08518 12.255157,11.74515 19.3222,11.71869 7.488384,-0.0265 11.312717,-1.33765 11.320276,-3.88084 0.0028,-1.22245 1.214441,-4.2046 2.6914,-6.62693 l 2.683585,-4.40427 -3.710925,-0.83595 C 60.960845,140.45855 55.118614,137.81278 48.384924,131.0674 40.912754,123.58238 36.955538,113.35334 36.297071,99.821432 35.685885,87.261612 37.054705,80.95379 42.160335,72.786371 c 2.45086,-3.920378 2.868807,-6.208496 2.371086,-12.941362 -0.332559,-4.498644 0.108586,-10.823927 0.978509,-14.054657 l 1.582029,-5.873026 5.701153,0.914038 c 3.136201,0.501957 9.376706,2.901156 13.86714,5.332027 l 8.164036,4.419916 12.246045,-1.806646 c 11.463572,-1.69054 16.975087,-1.496915 36.060427,1.263681 1.12263,0.162519 6.02206,-1.666918 10.88671,-4.066381 4.86465,-2.399501 11.12957,-4.761924 13.92377,-5.250011 4.6821,-0.81766 5.19714,-0.58231 6.56441,3.001956 0.81585,2.13913 1.31739,8.480703 1.1133,14.093698 -0.27893,7.67132 0.18595,11.050245 1.87108,13.607389 10.52558,15.972836 9.04937,42.723187 -3.17577,57.544747 -4.51063,5.46854 -16.46387,12.24755 -24.38078,13.82807 -10.0692,2.01029 -9.7885,1.75283 -7.16793,6.6191 1.79047,3.32473 2.50079,9.08656 3.05075,24.74407 l 0.71682,20.41203 3.45898,0.40237 c 0.23092,0.0265 0.52002,0.008 0.81444,-0.0113 A 99.999676,99.999676 0 0 0 199.99968,99.999523 99.999676,99.999676 0 0 0 99.999979,-1.3723283e-4 Z M 130.80654,194.96631 c -1.70804,0.56348 -3.43312,1.06336 -5.16603,1.53316 a 99.999676,99.999676 0 0 0 5.16603,-1.53316 z m -61.638481,-0.0113 a 99.999676,99.999676 0 0 0 5.216778,1.54884 c -1.749757,-0.47399 -3.492352,-0.97938 -5.216778,-1.54884 z m 15.349552,3.75389 a 99.999676,99.999676 0 0 0 2.533182,0.36321 c -0.845477,-0.1149 -1.690955,-0.22677 -2.533182,-0.36321 z m 30.964739,0 c -0.84707,0.13719 -1.6984,0.24982 -2.54879,0.3651 a 99.999676,99.999676 0 0 0 2.54879,-0.3651 z"
       class="icon-primary" /><path
       id="octocat"
       style="fill:currentColor;stroke-linecap:round;stroke-linejoin:round;paint-order:markers stroke fill"
       d="m 47.091959,39.917968 -1.582029,5.873027 c -0.869954,3.23073 -1.311057,9.556013 -0.978509,14.054656 0.497732,6.732904 0.0796,9.020985 -2.371086,12.941363 -5.105657,8.167456 -6.474454,14.475241 -5.863264,27.035061 0.658486,13.531945 4.615657,23.760905 12.087853,31.245975 6.73369,6.74537 12.575921,9.39115 28.788968,13.03902 l 3.710925,0.83595 -2.683585,4.40427 c -1.476951,2.42233 -2.688603,5.40448 -2.6914,6.62693 -0.0057,2.5432 -3.831892,3.85405 -11.320276,3.88084 -7.067039,0.0265 -9.803113,-1.63347 -19.3222,-11.71869 -7.171899,-7.59848 -8.806014,-8.67379 -13.187458,-8.67379 -7.050746,0 -7.364665,1.82652 -1.158199,6.74216 3.053663,2.41851 6.95763,7.4862 9.033174,11.72848 5.821179,11.89802 13.821766,16.36643 27.308505,15.248 l 7.382788,-0.6133 -0.390624,11.00387 c -0.379138,10.65139 -0.501304,11.01392 -3.849595,11.40427 -0.224617,0.0265 -0.517669,0.0113 -0.839842,-0.0189 9.95025,3.28614 20.355168,4.9879 30.833874,5.04297 10.469031,-0.0548 20.864471,-1.75321 30.806561,-5.03318 -0.29442,0.0189 -0.58352,0.0378 -0.81444,0.0113 l -3.45898,-0.40233 -0.71682,-20.41207 c -0.54996,-15.65751 -1.26028,-21.41934 -3.05075,-24.74407 -2.62057,-4.86628 -2.90131,-4.60882 7.16793,-6.6191 7.91691,-1.58052 19.87015,-8.3595 24.38078,-13.82808 12.22514,-14.82155 13.70135,-41.571866 3.17577,-57.54474 -1.68506,-2.557144 -2.14997,-5.936069 -1.87108,-13.607389 0.20409,-5.612995 -0.29745,-11.954568 -1.1133,-14.093698 -1.36727,-3.584266 -1.88231,-3.819578 -6.56441,-3.001918 -2.7942,0.488087 -9.05912,2.850473 -13.92377,5.249973 -4.86465,2.399501 -9.76408,4.228749 -10.88671,4.066381 C 104.04538,47.280653 98.533905,47.087066 87.070333,48.777606 L 74.824288,50.584214 66.660252,46.164298 C 62.169818,43.733427 55.929309,41.334266 52.793112,40.832309 Z"
       class="icon-secondary" /></g></svg>
