<?xml version="1.0" encoding="UTF-8" standalone="no"?>

<svg
   width="200"
   height="200"
   version="1.1"
   id="svg"
   viewbox="0 0 200 200"
   xmlns="http://www.w3.org/2000/svg"
   xmlns:svg="http://www.w3.org/2000/svg">
  <defs
     id="defs1" />
  <g
     id="main">
    <path
       id="body"
       style="fill:currentColor;stroke-linejoin:round;-inkscape-stroke:none"
       d="m 95.000268,51.714908 c -2.525628,-0.08428 -5.040598,0.175748 -7.496116,0.79491 -9.822053,2.477514 -17.61615,10.523589 -21.833939,21.562478 -2.176918,5.697517 -3.755768,7.399133 -5.173822,8.207006 -0.189543,0.07559 -0.481972,0.193134 -0.824216,0.294803 -0.776264,0.229795 -1.900211,0.530607 -3.208981,0.855457 -2.617546,0.649813 -6.008911,1.402997 -9.417957,2.07424 C 32.078354,88.450847 23.606267,91.80094 16.305046,98.292837 5.9200029,107.52674 0.30126268,120.21577 0.26990776,134.29279 c -0.0222992,9.20665 2.05342974,17.20949 6.72264804,26.53708 9.4206412,18.81927 25.7184412,32.0411 46.1229872,37.44525 8.081076,2.14053 15.471581,2.29299 23.357388,0.43362 8.24182,-1.94335 15.561583,-5.77243 21.617172,-11.40233 9.371367,-8.71255 13.682027,-18.53731 17.312477,-38.32417 1.23156,-6.7122 2.36776,-9.62138 3.32617,-10.82814 0.95849,-1.20676 2.74575,-2.34878 8.25973,-4.24607 12.46052,-4.28745 21.38685,-15.40582 21.36523,-28.23435 -0.0151,-7.958732 -3.59119,-15.615516 -9.38868,-23.130832 l -2.63474,-3.416008 -37.165971,36.42379 c 0.690783,2.26117 1.066391,4.65422 1.066391,7.12693 0,13.43499 -10.98159,24.55272 -24.408166,24.55272 -13.42658,0 -24.410126,-11.11773 -24.410126,-24.55272 0,-13.43503 10.983546,-24.560509 24.410126,-24.560509 2.94466,0 5.771191,0.536579 8.390627,1.513661 5.428036,-5.400371 22.131369,-22.061262 36.189379,-36.08586 a 7.6930011,7.6930011 0 0 0 -0.45898,-0.30652 c 0.0537,0.03024 0.18633,0.09373 0.19351,0.09751 0.0264,0.01512 -0.21581,-0.136063 -0.52343,-0.355275 -0.61515,-0.438274 -1.56389,-1.168402 -2.50586,-1.96093 -6.81418,-5.733044 -14.5306,-9.051918 -22.107371,-9.304655 z m 21.810492,10.810531 c 2.24519,0 2.54808,0.395376 2.84178,0.562468 a 7.6930011,7.6930011 0 0 0 -2.84178,-0.562468 z"
       class="icon-primary" />
    <path
       id="neck"
       style="fill:currentColor;stroke-linejoin:round;-inkscape-stroke:none"
       d="m 180.37843,0.00419962 a 2.5643401,2.5643401 0 0 0 -1.94509,0.73311398 l -9.65339,9.5331654 c -3.88773,3.836102 -6.35308,6.399336 -8.00269,8.44145 -1.64964,2.042114 -2.54796,3.721053 -2.89262,5.406569 -0.30954,1.51283 -0.86362,2.506731 -3.86815,5.737164 -3.00449,3.230358 -8.24597,8.315705 -17.14123,17.263423 -10.3938,10.455066 -44.762963,44.652941 -52.661749,52.511476 -2.619436,-0.97712 -5.446704,-1.512414 -8.391357,-1.512414 -13.426587,0 -24.408817,11.124043 -24.408817,24.559113 0,13.43499 10.98223,24.55302 24.408817,24.55302 13.426588,0 24.408826,-11.11803 24.408826,-24.55302 0,-2.47272 -0.374933,-4.86618 -1.065716,-7.12735 L 151.80498,63.963849 a 2.5643401,2.5643401 0 0 0 0.0151,-0.02268 c 9.29596,-9.309908 14.56613,-14.50199 17.9285,-17.467819 3.36242,-2.965791 4.56287,-3.592965 6.51034,-4.306804 4.29358,-1.57383 7.13072,-3.79789 14.22662,-11.009522 l 8.50351,-8.645733 a 2.5643401,2.5643401 0 0 0 0.7412,-1.800867 V 14.69887 c 0,-2.753798 -0.0151,-4.492303 -0.48476,-6.1718093 -0.46753,-1.6795065 -1.43906,-2.9647709 -2.60413,-4.2688195 -1.17509,-1.3152739 -2.35903,-2.4489038 -4.02844,-3.0528715 -1.66942,-0.60389214 -3.39953,-0.7031802 -6.19986,-0.86131542 z"
       class="icon-secondary" />
  </g>
</svg>
