<?xml version="1.0" encoding="UTF-8" standalone="no"?>

<svg
   width="200"
   height="200"
   version="1.1"
   id="svg"
   viewbox="0 0 200 200"
   xmlns="http://www.w3.org/2000/svg"
   xmlns:svg="http://www.w3.org/2000/svg">
  <defs
     id="defs" />
  <g
     id="main">
    <path
       id="box"
       style="fill:currentColor;stroke-linecap:round;stroke-linejoin:round;paint-order:stroke fill markers"
       d="M 84.288525,5.2814182e-4 C 68.672979,-0.01458989 53.705426,0.29684153 41.284846,0.95560969 33.004459,1.3946751 25.875889,1.9811035 20.265429,2.7720032 17.460191,3.1673775 15.046806,3.6046287 12.892419,4.1821374 10.875568,4.7227582 9.0693825,5.1893384 6.7205773,7.1860522 4.0441606,9.1943313 4.1389015,10.4712 3.8709836,11.305148 3.5722135,12.23521 3.4242156,12.993341 3.2733301,13.844222 2.9715742,15.545983 2.7372107,17.541752 2.5135697,19.986753 2.066299,24.876831 1.6862846,31.480008 1.3514656,39.340174 0.68183138,55.060469 0.21906848,75.741443 0.0096762,96.626963 c -0.01171647,2.248694 -0.01285032,4.497427 0,6.746077 0.20938472,20.88556 0.67214762,41.56646 1.3417894,57.28679 0.3348266,7.86021 0.7148107,14.46338 1.1621041,19.35342 0.2236334,2.44504 0.4581821,4.44081 0.7597604,6.14254 0.1508779,0.85088 0.2987322,1.60908 0.5976535,2.53903 0.2678915,0.83403 0.1731392,2.11089 2.8495937,4.11914 2.3487787,1.99671 4.1549827,2.46329 6.1718417,3.00387 2.154406,0.57755 4.567765,1.0148 7.37301,1.41017 5.610475,0.7909 12.738977,1.37733 21.019417,1.8164 12.420652,0.65873 27.388088,0.9702 43.003679,0.95508 10.47498,-0.15496 20.946715,-0.0151 31.421695,0 15.61564,0.0151 30.58301,-0.29631 43.00369,-0.95508 8.28044,-0.43907 15.40893,-1.0255 21.01942,-1.8164 2.80523,-0.39537 5.21856,-0.83262 7.37299,-1.41017 2.01682,-0.54058 3.82505,-1.00716 6.17383,-3.00387 2.67646,-2.00825 2.58167,-3.28511 2.8496,-4.11914 0.29895,-0.92995 0.44673,-1.68815 0.59765,-2.53903 0.3016,-1.70173 0.53612,-3.6975 0.75976,-6.14254 0.44726,-4.89004 0.82722,-11.49321 1.16208,-19.35342 0.66962,-15.72033 1.13238,-36.40123 1.3418,-57.28679 0.0113,-2.24865 0.0113,-4.497383 0,-6.746077 -0.20938,-20.88552 -0.67218,-41.566494 -1.3418,-57.286789 -0.33486,-7.860166 -0.71482,-14.463343 -1.16208,-19.353421 -0.22375,-2.445001 -0.45816,-4.44077 -0.75976,-6.142531 -0.1508,-0.850881 -0.29858,-1.609012 -0.59765,-2.539074 -0.26797,-0.833948 -0.17311,-2.1108167 -2.8496,-4.1190958 -2.34878,-1.9967138 -4.15701,-2.463294 -6.17383,-3.0039148 C 184.95189,3.6046287 182.53856,3.1673775 179.73333,2.7720032 174.12284,1.9811035 166.99435,1.3946751 158.71391,0.95560969 146.29323,0.29684153 131.32586,-0.01458989 115.71022,5.2814182e-4 c -10.47495,0.15495980818 -20.946677,0.0151180282 -31.421695,0 z M 46.491851,35.055044 A 13.134149,12.809848 0 0 1 59.626547,47.863569 13.134149,12.809848 0 0 1 46.491851,60.67402 13.134149,12.809848 0 0 1 33.357155,47.863569 13.134149,12.809848 0 0 1 46.491851,35.055044 Z m 40.040794,42.232179 h 5.222637 6.402297 c 4.236601,0.474253 4.378711,0.356786 4.431621,3.992181 -0.27855,4.803943 1.50016,3.31716 5.67187,1.462858 8.80992,-3.92241 18.41259,-4.583257 25.26937,-3.974568 8.15501,0.723927 16.19863,5.749538 19.80266,10.880787 5.1382,7.315652 11.67221,12.571059 10.97062,59.126649 l -0.12888,8.50972 c -0.0714,8.2273 0.0472,8.23524 -4.76755,8.332 h -6.86713 -4.88279 c -6.29261,-0.0378 -6.37425,-0.49984 -6.49217,-7.23239 l 0.18368,-9.85934 c 0.33562,-17.96612 -0.11338,-29.7736 -1.35937,-35.73808 -2.15973,-10.33827 -7.35009,-15.275181 -16.04874,-15.271401 -3.41353,0.002 -7.98122,0.96196 -10.32807,2.171856 -5.28386,2.724235 -9.70577,9.219125 -9.72845,14.413985 -0.0265,8.93698 0.0597,32.26811 -0.15231,47.41577 -0.10167,2.60669 0.63261,4.0996 -4.203118,4.0996 h -6.585905 -6.58394 c -4.973605,-0.0438 -4.899149,-0.0189 -5.083967,-6.46678 l -0.249826,-20.10732 c -0.18255,-14.61558 -0.331651,-34.48872 -0.332029,-44.163809 l -0.002,-12.085882 c 0.168944,-5.11477 0.02797,-5.402655 5.841746,-5.505836 z m -45.999747,0.498064 h 5.101534 6.148404 c 5.454015,0.195778 5.50124,0.0994 5.539035,5.509728 0.04271,7.083364 0.03704,22.416485 -0.01965,39.743945 l -0.128919,38.47829 c -0.0378,4.33079 -0.146002,4.25406 -3.34178,4.45702 -2.155033,0.13644 -5.742092,0.29972 -9.513621,0.4238 l -6.263638,0.20712 c -3.565735,-0.0559 -3.607702,-0.25021 -3.861307,-4.02733 l -0.002,-40.31813 V 83.418114 c 0.05707,-5.322038 0.08398,-5.366674 6.341764,-5.632751 z"
       class="icon-primary" />
    <path
       id="in"
       style="fill:currentColor;stroke-linecap:round;stroke-linejoin:round;paint-order:stroke fill markers"
       d="M 46.491851,35.055044 A 13.134149,12.809848 0 0 0 33.357155,47.863569 13.134149,12.809848 0 0 0 46.491851,60.67402 13.134149,12.809848 0 0 0 59.626547,47.863569 13.134149,12.809848 0 0 0 46.491851,35.055044 Z m 40.040794,42.232179 c -5.813963,0.103181 -5.672814,0.391066 -5.841758,5.505836 l 0.002,12.085882 c 3.78e-4,9.675119 0.149858,29.548189 0.33203,44.163809 l 0.249825,20.10732 c 0.184818,6.44769 0.110362,6.42293 5.083967,6.46678 h 6.58394 6.585905 c 4.835736,0 4.101446,-1.49291 4.203116,-4.0996 0.21203,-15.14766 0.12586,-38.47879 0.15232,-47.41577 0.0227,-5.19486 4.44458,-11.68975 9.72845,-14.413985 2.34685,-1.209896 6.91453,-2.169853 10.32807,-2.171856 8.69865,-0.0038 13.88901,4.933131 16.04873,15.271401 1.24603,5.96448 1.695,17.77193 1.35938,35.73808 l -0.18368,9.85934 c 0.11792,6.73255 0.19955,7.19459 6.49217,7.23239 h 4.88278 6.86714 c 4.81464,-0.0968 4.69611,-0.1047 4.76755,-8.332 l 0.12888,-8.50972 c 0.70159,-46.55563 -5.83239,-51.810997 -10.97063,-59.126649 -3.60402,-5.131249 -11.64765,-10.15686 -19.80265,-10.880787 -6.85678,-0.608689 -16.45942,0.05216 -25.26937,3.974568 -4.17171,1.854302 -5.95042,3.341085 -5.67187,-1.462858 -0.0529,-3.635546 -0.19502,-3.517928 -4.431629,-3.992181 h -6.402297 z m -45.999747,0.498064 c -6.257836,0.266077 -6.284694,0.310675 -6.341764,5.632751 v 38.841622 l 0.002,40.31812 c 0.253718,3.77717 0.295557,3.97139 3.861307,4.02733 l 6.263638,-0.20712 c 3.771529,-0.12396 7.358588,-0.28724 9.513621,-0.42379 3.195759,-0.20296 3.303985,-0.12624 3.341781,-4.45702 l 0.128919,-38.4783 c 0.05669,-17.32745 0.06149,-32.660576 0.01965,-39.74394 -0.0359,-5.410328 -0.085,-5.31395 -5.539035,-5.509729 h -6.148404 z"
       class="icon-secondary" />
  </g>
</svg>
