<?xml version="1.0" encoding="UTF-8" standalone="no"?>

<svg
   width="200"
   height="200"
   version="1.1"
   id="svg"
   viewbox="0 0 200 200"
   xml:space="preserve"
   xmlns="http://www.w3.org/2000/svg"
   xmlns:svg="http://www.w3.org/2000/svg"><defs
     id="defs" /><g
     id="main"><path
       id="m"
       style="fill:currentColor;stroke:#000000;stroke-width:0;-inkscape-stroke:none;paint-order:markers stroke fill"
       d="m 70.533203,32.771484 c -6.061596,0.03425 -11.575636,1.523309 -16.103515,4.369141 -5.439492,3.418781 -9.607704,8.654733 -12.013672,15.09375 -0.808469,2.163708 -1.657292,5.517522 -2.123047,8.380859 l -0.376953,2.3125 -0.05273,29.466797 -0.05273,29.464849 h 10.480469 10.482422 l 0.115234,-27.380864 c 0.126831,-29.9782 0.101179,-29.222059 1.121094,-32.353516 1.84277,-5.657954 6.212913,-8.613281 12.736328,-8.613281 7.956115,0 12.909692,4.221717 14.570312,12.417969 0.622345,3.071716 0.683461,4.903906 0.683594,20.46289 v 15.128902 h 10.494141 10.49414 l 0.0644,-16.462886 c 0.0624,-15.911664 0.0762,-16.524447 0.41602,-18.296875 1.55151,-8.091702 5.47476,-12.219718 12.44141,-13.09375 1.89291,-0.237474 4.42738,-0.136842 6.23828,0.248047 4.29226,0.912285 7.34707,3.677638 8.75781,7.927734 1.08178,3.258997 1.00005,0.917138 1.09961,31.841797 l 0.0918,28.091793 10.54296,0.041 10.54493,0.043 V 93.644531 c -6e-4,-28.912381 -0.024,-30.110465 -0.67383,-34.050781 -2.58989,-15.703372 -13.03203,-25.761583 -27.75391,-26.734375 -11.28819,-0.745905 -20.4161,3.156709 -26.13672,11.175781 -0.43628,0.611578 -1.98025,3.107814 -3.43164,5.546875 -1.93571,3.25294 -2.6837,4.378086 -2.80664,4.222657 -0.0922,-0.116554 -1.346023,-2.194091 -2.785155,-4.615235 -3.026255,-5.09127 -3.915912,-6.337039 -6.09375,-8.533203 -4.81716,-4.857665 -10.631193,-7.334002 -18.339844,-7.810547 -0.886998,-0.05483 -1.764917,-0.07911 -2.630859,-0.07422 z"
       class="icon-secondary" /><path
       style="fill:currentColor;stroke-width:0"
       d="M 84.5827,199.94793 C 74.629784,199.22281 67.954641,198.11238 60.076419,195.87126 51.517911,193.4366 45.45151,190.66072 38.4042,185.95441 26.826249,178.22246 18.343845,167.98317 14.655653,157.28701 13.11999,152.8334 10.852862,141.81977 9.5764851,132.61248 8.1022219,121.97781 7.484534,112.85605 6.8107393,91.768686 6.6261781,85.992208 6.4016016,79.277986 6.3116827,76.848203 5.7900131,62.750112 6.4729579,51.708574 8.4152013,42.839488 10.366902,33.927264 14.8486,25.82726 21.566369,19.070709 27.915666,12.684769 35.393932,8.0616489 44.239029,5.0543512 47.537542,3.9328584 50.327391,3.2797687 55.844338,2.3375995 65.504263,0.68790635 78.032419,4.8348921e-5 98.419579,-3.5107925e-7 123.06981,-6.0451079e-5 143.98271,1.2524241 153.0169,3.2698616 c 13.7159,3.0629063 25.46791,11.0065474 32.95276,22.2740484 4.35421,6.554706 6.82431,13.738484 7.38007,21.463316 0.50987,7.087206 0.65532,19.815898 0.34574,30.257741 -0.0816,2.750712 -0.22917,9.202365 -0.32803,14.337007 -0.22253,11.557276 -0.39492,15.080496 -0.90949,18.588096 -2.66945,18.19653 -12.14508,30.70728 -28.28147,37.34027 -9.05196,3.72087 -22.2294,5.91661 -41.5007,6.9152 -8.73467,0.45261 -24.065154,0.58863 -29.424195,0.26107 -9.612979,-0.58759 -18.643889,-1.86093 -27.328001,-3.85322 -1.470876,-0.33745 -2.209084,-0.44017 -2.325664,-0.32359 -0.38658,0.38658 0.505536,5.77722 1.560482,9.42921 1.281497,4.43629 2.824777,7.07393 5.839202,9.97984 3.843931,3.70556 9.325819,6.16368 16.185278,7.25761 3.284256,0.52377 5.596368,0.67649 10.236437,0.67618 11.843401,-6e-4 23.521131,-1.31341 35.746451,-4.01806 1.23083,-0.27231 2.33736,-0.45692 2.45897,-0.41025 0.1793,0.0687 0.22109,1.56373 0.22109,7.90936 v 7.82452 l -1.292,0.82758 c -2.90053,1.85791 -5.77304,3.05454 -12.54488,5.22592 -6.85274,2.19732 -14.13286,3.64901 -22.088987,4.40463 -2.646363,0.25134 -13.216702,0.46609 -15.337263,0.31159 z M 60.888545,94.477712 c 0.126831,-29.978228 0.100606,-29.220968 1.120522,-32.352431 1.842772,-5.657964 6.214357,-8.61443 12.737778,-8.61443 7.956123,0 12.909407,4.22163 14.570029,12.417885 0.622345,3.071724 0.683594,4.904571 0.683727,20.463572 l 1.5e-4,15.128882 h 10.493749 10.49376 l 0.0646,-16.462557 c 0.0624,-15.911682 0.0764,-16.523914 0.41624,-18.296348 1.55151,-8.091708 5.47348,-12.219752 12.44013,-13.093785 1.89292,-0.237474 4.42815,-0.136578 6.23905,0.248311 4.29227,0.912286 7.34704,3.677453 8.75778,7.927547 1.08178,3.258999 1.00083,0.916787 1.10039,31.84148 l 0.0904,28.090532 10.54435,0.0429 10.54437,0.0429 -5e-4,-28.216803 c -6e-4,-28.91241 -0.0243,-30.111405 -0.67418,-34.051728 C 157.921,43.890252 147.4789,33.831524 132.75701,32.858731 c -11.2882,-0.745906 -20.41524,3.156931 -26.13586,11.176011 -0.43628,0.611578 -1.98075,3.10754 -3.43214,5.546604 -1.93572,3.252943 -2.68358,4.37819 -2.80652,4.22276 -0.0922,-0.116554 -1.345082,-2.192828 -2.784215,-4.613974 -3.026258,-5.091275 -3.916508,-6.337888 -6.094348,-8.534054 -4.817165,-4.85767 -10.632172,-7.334044 -18.34083,-7.810589 -7.095999,-0.438676 -13.559157,1.043337 -18.733882,4.29572 -5.439497,3.418784 -9.606309,8.654404 -12.01228,15.093427 -0.808469,2.16371 -1.658656,5.51786 -2.124412,8.381207 l -0.376075,2.312089 -0.05288,29.465877 -0.05287,29.465871 h 10.481055 10.481003 z"
       id="elephant"
       class="icon-primary" /></g></svg>
