<?xml version="1.0" encoding="UTF-8" standalone="no"?>

<svg
   width="200"
   height="200"
   version="1.1"
   id="svg"
   viewbox="0 0 200 200"
   xmlns="http://www.w3.org/2000/svg"
   xmlns:svg="http://www.w3.org/2000/svg">
  <defs
     id="defs" />
  <g
     id="main">
    <path
       id="top"
       style="fill:currentColor;-inkscape-stroke:none"
       d="M 99.798828,0.00390625 C 42.913543,-0.05203346 -0.27333859,49.993865 0.19726562,100.17969 v 0.0234 0.0215 c 0.48463999,31.32856 15.36504238,49.93958 33.73242238,58.88086 -0.532272,-4.41176 -0.818233,-9.22411 -0.851563,-14.55078 l -0.02344,-3.92774 3.210937,-2.25781 c 21.527208,-15.10568 42.704868,-22.61195 63.054687,-22.99219 1.356651,-0.0261 2.709431,-0.0183 4.058601,0.0195 21.58676,0.60567 41.80481,9.27458 60.12304,23.81446 l 2.7461,2.17773 0.0879,3.49805 c 0.1579,5.94601 -0.0332,11.2584 -0.56836,16.08008 18.82932,-8.72312 33.66561,-27.93888 34.0293,-60.74805 V 100.205 C 200.13629,76.779168 189.85222,51.981908 172.26367,32.722656 154.68077,13.469491 129.3723,-0.2619964 99.798828,0.00390625 Z"
       class="icon-primary" />
    <path
       id="bottom"
       style="fill:currentColor;-inkscape-stroke:none"
       d="m 99.320068,115.37619 c -20.349843,0.38024 -41.526673,7.88763 -63.053908,22.99333 l -3.211095,2.25793 0.02343,3.92791 c 0.08077,12.91313 1.550533,22.94268 4.78344,31.03475 3.232911,8.0921 8.54875,14.17646 15.059339,17.86614 13.021177,7.3794 28.727376,6.38137 46.877338,6.43583 18.125208,0.0544 34.097908,1.25861 47.320668,-5.95732 6.6114,-3.608 12.03325,-9.69825 15.18436,-17.84267 3.1511,-8.14438 4.37616,-18.22469 4.03145,-31.20468 l -0.0877,-3.4982 -2.74623,-2.17783 c -18.31824,-14.53989 -38.53535,-23.20998 -60.12213,-23.81565 -1.34917,-0.0378 -2.70212,-0.045 -4.058778,-0.0189 z"
       class="icon-secondary" />
  </g>
</svg>
