<?xml version="1.0" encoding="UTF-8" standalone="no"?>

<svg
   width="200"
   height="200"
   version="1.1"
   id="svg"
   viewbox="0 0 200 200"
   xmlns="http://www.w3.org/2000/svg"
   xmlns:svg="http://www.w3.org/2000/svg">
  <defs
     id="defs" />
  <g
     id="main">
    <path
       id="patty"
       style="fill:currentColor;stroke-linecap:round;stroke-linejoin:round;stroke-dasharray:none;paint-order:stroke fill markers"
       d="M 98.835675,0.00474747 C 77.577662,-0.06026041 65.120098,0.45126085 55.983392,7.3346119 51.415051,10.776325 48.620162,15.931034 47.305915,21.2483 c -1.314244,5.317228 -1.575493,11.024088 -1.736278,17.78657 -0.09838,4.225852 3.21241,7.730872 7.388455,7.818141 l 35.647385,0.742148 v 1.498016 L 35.487903,48.858844 c -0.07926,-0.0013 -0.157115,-0.0013 -0.236334,0 -13.613699,0.372662 -23.499753,8.812687 -28.6222107,18.552189 -5.122439,9.739653 -6.65722193,20.77954 -6.62480871,29.934689 0.03174803,8.905758 1.28353511,18.277888 3.53505631,26.536308 2.2514986,8.25853 4.913314,15.48801 10.9781931,20.40178 6.837887,5.54014 14.647869,5.41447 21.571634,5.68342 6.923777,0.26873 12.843375,-0.22639 12.843375,-0.22639 0.223786,-0.0151 2.85888,-0.72612 4.806501,-2.65225 0.01587,-5.24076 0.02192,-8.42967 0.02343,-12.57773 0.0014,-2.05584 0.0045,-3.57699 0,-5.45885 0.0076,-0.86926 0.0042,-2.41013 0.0155,-2.92566 0.05231,-2.34482 0.48093,-4.51105 1.226529,-6.57014 0.745428,-2.05863 1.809471,-4.00894 3.132722,-5.91976 v -0.002 c 0.882466,-1.27415 1.879759,-2.53137 2.976476,-3.7909 2.193422,-2.51905 4.955992,-4.93512 8.226323,-6.742 h 0.0019 c 1.63474,-0.90304 3.396367,-1.65486 5.277192,-2.18936 1.881407,-0.53469 3.88162,-0.8538 5.993983,-0.89254 h 0.0019 0.002 c 4.048695,-0.07487 9.230162,-0.07147 14.759309,-0.04497 0.203338,10e-4 0.340535,-0.003 0.544894,-0.002 v -0.0019 c 3.015723,0.03024 5.761483,0.03893 8.560293,0.05254 5.57189,0.0265 10.82532,0.0302 14.90192,-0.04498 h 0.002 c 2.11298,-0.03893 4.11401,-0.357543 5.99592,-0.892611 2.82138,-0.80228 5.37558,-2.090079 7.63453,-3.650268 h 0.002 c 2.25888,-1.56034 4.22226,-3.394091 5.86704,-5.283061 1.09633,-1.259074 2.09597,-2.515389 2.97838,-3.788938 v -0.002 c 1.32363,-1.910438 2.38685,-3.859653 3.13274,-5.917757 v -0.002 c 0.24831,-0.685681 0.46288,-1.383344 0.63862,-2.095672 v -0.0019 c 0.35188,-1.425789 0.55302,-2.90933 0.58791,-4.472504 0.0265,-1.178041 0.0151,-5.619326 0.0151,-8.384542 9.8e-4,-1.447521 0,-3.843666 0,-3.843666 0.034,-12.423836 0.0302,-26.673108 -0.0782,-30.28422 -0.008,-0.298961 0.57585,-10.508447 -6.09161,-18.251452 C 133.40074,5.3650057 120.9531,0.07211755 98.836847,0.00469078 Z M 70.088449,15.226946 c 5.63057,1.89e-4 10.195011,4.477228 10.195011,9.99976 0,5.522457 -4.564403,9.999496 -10.195011,9.999685 -5.630559,-1.89e-4 -10.195011,-4.477228 -10.195011,-9.999685 0,-5.52257 4.564452,-9.999571 10.195011,-9.99976 z M 129.91288,164.77145 c -5.63063,1.9e-4 -10.19505,4.47723 -10.19505,9.99969 0,5.52257 4.56442,9.99953 10.19505,9.99972 5.63055,-1.9e-4 10.19501,-4.47719 10.19501,-9.99972 0,-5.52246 -4.56446,-9.9995 -10.19501,-9.99969 z"
       class="icon-primary" />
    <path
       id="yolanda"
       style="fill:currentColor;stroke-linecap:round;stroke-linejoin:round;stroke-dasharray:none;paint-order:stroke fill markers"
       d="m 101.16447,199.99525 c 21.25799,0.065 33.71558,-0.44651 42.85229,-7.32986 4.56831,-3.44168 7.3632,-8.59639 8.67745,-13.91365 1.31426,-5.31727 1.5755,-11.02413 1.73632,-17.78657 0.0983,-4.22585 -3.21245,-7.73088 -7.38849,-7.81814 l -35.64737,-0.74219 v -1.49802 l 53.11759,0.23433 c 0.0794,10e-4 0.15723,10e-4 0.23622,0 13.61367,-0.37266 23.49975,-8.81268 28.62221,-18.55215 5.12244,-9.73969 6.65719,-20.77954 6.62476,-29.93469 -0.0302,-8.905753 -1.28353,-18.277885 -3.53503,-26.536342 -2.2515,-8.258494 -4.91331,-15.488012 -10.97817,-20.401738 -6.83792,-5.54022 -14.6479,-5.414513 -21.57165,-5.683464 -6.92379,-0.268725 -12.8434,0.226393 -12.8434,0.226393 -0.22375,0.01512 -2.85887,0.726161 -4.8065,2.652246 -0.0151,5.240768 -0.0227,8.429707 -0.0227,12.577738 -0.001,2.055874 -0.004,3.577021 0,5.458847 -0.008,0.869292 -0.004,2.41013 -0.0151,2.925695 -0.0522,2.344781 -0.48094,4.511017 -1.22649,6.570142 -0.74544,2.058595 -1.80949,4.008944 -3.13274,5.919722 v 0.002 c -0.88248,1.274154 -1.87975,2.531376 -2.97645,3.790904 -2.19345,2.519055 -4.95598,4.935155 -8.22637,6.741996 h -0.002 c -1.63476,0.903043 -3.39636,1.654904 -5.2772,2.189367 -1.88137,0.53469 -3.88161,0.853833 -5.99395,0.892573 h -0.002 -0.002 c -4.0487,0.07487 -9.23017,0.07151 -14.75935,0.04493 -0.20334,-10e-4 -0.34054,0.003 -0.54486,0.002 v 0.002 c -3.01572,-0.03024 -5.761516,-0.03889 -8.560331,-0.0525 -5.571893,-0.02646 -10.825285,-0.03024 -14.901884,0.0449 h -0.0019 c -2.113017,0.0389 -4.114027,0.35754 -5.995952,0.89257 -2.821372,0.80232 -5.375577,2.09008 -7.634536,3.65027 h -0.002 c -2.25888,1.56038 -4.22225,3.39417 -5.867013,5.2831 -1.096335,1.25907 -2.09599,2.51539 -2.978408,3.78894 v 0.002 c -1.323628,1.91051 -2.386816,3.85961 -3.132721,5.91779 v 0.002 c -0.248315,0.68564 -0.462864,1.38334 -0.638646,2.09563 v 0.002 c -0.351874,1.42583 -0.553005,2.90937 -0.58789,4.47254 -0.02646,1.17797 -0.01512,5.61929 -0.01512,8.38451 -9.82e-4,1.44752 0,3.84366 0,3.84366 -0.03401,12.4238 -0.03024,26.67311 0.07824,30.28426 0.0076,0.29896 -0.575834,10.50845 6.091627,18.25145 6.667305,7.74282 19.114968,13.03567 41.231194,13.10309 z m 28.74724,-15.2222 c -5.63059,-1.9e-4 -10.19505,-4.47719 -10.19505,-9.99972 0,-5.52249 4.56442,-9.9995 10.19505,-9.99968 5.63051,1.8e-4 10.19501,4.47719 10.19501,9.99968 0,5.52257 -4.5645,9.99953 -10.19501,9.99972 z M 70.087289,35.228583 c 5.630615,-1.89e-4 10.194999,-4.477266 10.194999,-9.999685 0,-5.52257 -4.564384,-9.999571 -10.194999,-9.99976 -5.630574,1.89e-4 -10.195015,4.47719 -10.195015,9.99976 0,5.522419 4.564441,9.999496 10.195015,9.999685 z"
       class="icon-secondary" />
  </g>
</svg>
