<?xml version="1.0" encoding="UTF-8" standalone="no"?>

<svg
   width="200"
   height="200"
   version="1.1"
   id="svg"
   viewbox="0 0 200 200"
   xmlns="http://www.w3.org/2000/svg"
   xmlns:svg="http://www.w3.org/2000/svg">
  <defs
     id="defs" />
  <g
     id="main">
    <path
       id="scale"
       style="fill:currentColor;stroke-linejoin:round;-inkscape-stroke:none"
       d="m 159.5957,2.7792969 a 7.5002156,7.5002156 0 0 0 -2.34961,0.4179687 l -0.0156,-0.041016 -119.201173,39.6386724 0.01172,0.03711 A 7.5002156,7.5002156 0 0 0 33.6875,46.566406 L 0.7890625,112.51172 a 7.5002156,7.5002156 0 0 0 -0.0488281,0.23242 7.5002345,7.5002345 0 0 1 6.7617187,-4.38086 H 19.623047 L 40.400391,66.708984 61.177734,108.36133 h 12.123047 a 7.5002345,7.5002345 0 0 1 6.69336,4.12305 L 50.96875,54.300781 92.496094,40.492188 V 155.17773 c -3.39892,0.55646 -7.56371,1.53262 -11.853516,3.3418 -9.878901,4.16649 -21.044918,14.35435 -21.044922,31.20117 a 7.5002156,7.5002156 0 0 0 7.5,7.5 h 65.796874 a 7.5002156,7.5002156 0 0 0 7.5,-7.55078 c -0.13189,-16.835 -11.29647,-26.98488 -21.14844,-31.15039 -4.33092,-1.83117 -8.4233,-2.77577 -11.75,-3.32226 V 35.503906 l 37.32032,-12.408203 -24.83203,49.777344 a 7.5002156,7.5002156 0 0 0 -0.0488,0.228515 7.5002345,7.5002345 0 0 1 6.76172,-4.376953 h 12.125 l 20.77343,-41.646484 20.77735,41.646484 h 12.1289 a 7.5002345,7.5002345 0 0 1 6.76367,4.304688 7.5002156,7.5002156 0 0 0 -0.0547,-0.15625 L 166.31055,6.9277344 A 7.5002156,7.5002156 0 0 0 159.59375,2.78125 Z M 199.75,74.419922 a 7.5002345,7.5002345 0 0 1 0.10352,0.439453 7.5002156,7.5002156 0 0 0 -0.10352,-0.439453 z m 0.23438,2.052734 c -8.3e-4,0.06383 -0.007,0.123862 -0.008,0.1875 a 7.5002156,7.5002156 0 0 0 0.008,-0.1875 z m -80.7754,0.06055 a 7.5002156,7.5002156 0 0 0 0.004,0.0625 c -2.1e-4,-0.02126 -0.004,-0.04122 -0.004,-0.0625 z M 80.572266,114.12891 a 7.5002345,7.5002345 0 0 1 0.07422,0.31445 7.5002156,7.5002156 0 0 0 -0.07422,-0.31445 z m -80.556641,2.03906 a 7.5002156,7.5002156 0 0 0 0.0019531,0.0645 c -2.1861e-4,-0.0219 -0.0017723,-0.0426 -0.0019531,-0.0645 z m 80.771484,0.0156 c -1.78e-4,0.012 -0.0018,0.0232 -0.002,0.0352 a 7.5002156,7.5002156 0 0 0 0.002,-0.0352 z"
       class="icon-primary" />
    <path
       id="load"
       style="fill:currentColor;stroke-linejoin:round;-inkscape-stroke:none"
       d="m 126.69686,68.724554 a 7.5002345,7.5002345 0 0 0 -7.49946,7.499504 c 0,16.846767 11.16452,27.034462 21.04345,31.200952 9.87893,4.1665 19.37563,4.06808 19.37563,4.06808 a 7.5002345,7.5002345 0 0 0 0.0227,-0.0151 v 0.0151 h 0.0151 c 0.0113,-3e-5 0.0227,-0.008 0.0378,-0.008 0.0302,-2.2e-4 0.0707,6.8e-4 0.11716,0 0.0933,-0.001 0.21504,-0.003 0.36924,-0.008 0.30838,-0.008 0.73529,-0.0265 1.26356,-0.0586 1.05645,-0.0646 2.52338,-0.18632 4.28096,-0.43553 3.51514,-0.49844 8.19814,-1.47561 13.12411,-3.55837 9.85199,-4.16554 21.01508,-14.307321 21.14697,-31.142372 A 7.5002345,7.5002345 0 0 0 192.5024,68.724136 Z M 7.5019289,108.36246 a 7.5002345,7.5002345 0 0 0 -7.49948478,7.49947 c 3.78e-6,16.84684 11.16456188,27.0345 21.04347788,31.20099 9.878919,4.16649 19.375622,4.06026 19.375622,4.06026 a 7.5002345,7.5002345 0 0 0 0.02343,-0.0151 v 0.0151 h 0.0079 c 0.01058,-8e-5 0.02759,1.1e-4 0.04297,0 0.03061,-2.7e-4 0.07241,6.8e-4 0.119123,0 0.09339,-0.001 0.214965,-0.003 0.369121,-0.008 0.308313,-0.008 0.733386,-0.0265 1.261633,-0.0586 1.056491,-0.0646 2.523387,-0.19388 4.280954,-0.44331 3.515139,-0.49845 8.198124,-1.46779 13.124098,-3.55055 9.851965,-4.1655 21.017053,-14.30732 21.148938,-31.14237 a 7.5002345,7.5002345 0 0 0 -7.499485,-7.55808 z"
       class="icon-secondary" />
  </g>
</svg>
